<?xml version="1.0" standalone="no"?>
<!DOCTYPE svg PUBLIC "-//W3C//DTD SVG 20010904//EN"
 "http://www.w3.org/TR/2001/REC-SVG-20010904/DTD/svg10.dtd">
<svg version="1.0" xmlns="http://www.w3.org/2000/svg"
 width="900.000000pt" height="600.000000pt" viewBox="0 0 900.000000 600.000000"
 preserveAspectRatio="xMidYMid meet">

<g transform="translate(0.000000,600.000000) scale(0.100000,-0.100000)"
fill="#000000" stroke="none">
<path d="M8485 5978 c19 -154 21 -143 -20 -198 -36 -49 -36 -51 -21 -75 16
-25 16 -25 -16 -26 l-33 -1 33 -9 c31 -9 36 -29 8 -29 -8 0 -21 -10 -29 -22
l-16 -23 6 25 c3 18 2 21 -5 11 -6 -8 -19 -15 -29 -16 -10 0 -24 -4 -31 -9 -6
-4 -12 -3 -12 3 0 6 -7 8 -15 5 -8 -4 -15 -1 -15 6 0 7 -6 10 -14 7 -8 -3 -17
1 -20 9 -3 8 -1 14 4 14 6 0 10 5 10 10 0 14 -43 13 -58 -2 -15 -15 -179 -20
-204 -7 -10 5 -18 14 -18 20 0 6 5 7 12 3 7 -5 8 -3 3 5 -5 9 -10 10 -18 2
-17 -17 -29 -13 -72 24 -33 29 -48 35 -85 35 -65 0 -168 27 -218 56 -29 17
-51 24 -68 20 -14 -4 -24 -2 -24 4 0 18 -18 11 -25 -10 -3 -11 -13 -20 -21
-20 -8 0 -17 -7 -20 -15 -4 -8 -12 -15 -20 -15 -8 0 -14 -4 -14 -8 0 -13 -60
-30 -132 -37 -76 -7 -108 -1 -108 22 0 12 -3 13 -14 4 -15 -13 -39 2 -94 59
-13 14 -29 24 -34 22 -5 -1 -7 1 -4 6 2 4 1 14 -4 21 -6 11 -16 11 -56 -3 -56
-19 -162 -20 -219 -2 -35 11 -45 10 -79 -7 -55 -29 -169 -34 -236 -12 -100 33
-125 26 -457 -138 -128 -63 -238 -61 -348 6 l-50 30 -96 -22 c-148 -33 -227
-30 -326 15 -18 8 -33 19 -33 23 0 23 -150 34 -158 12 -1 -4 -23 -5 -48 -1
-24 4 -47 4 -49 0 -7 -11 -123 -51 -148 -52 -37 0 -68 -8 -63 -16 2 -4 -28 -7
-67 -7 -47 0 -72 4 -74 13 -6 17 -23 15 -23 -4 0 -11 -6 -14 -20 -9 -11 4 -20
2 -20 -4 0 -6 5 -11 10 -11 6 0 10 -4 10 -10 0 -5 -7 -10 -15 -10 -8 0 -15 -8
-15 -19 0 -10 -8 -22 -17 -25 -40 -14 -67 -36 -68 -55 -1 -15 5 -21 19 -22 17
-1 18 -2 3 -6 -13 -3 -15 -11 -10 -31 8 -34 20 -42 55 -38 16 2 28 0 28 -4 0
-4 10 -8 23 -8 20 0 144 -9 212 -16 79 -8 225 -66 225 -90 0 -6 9 -19 20 -29
13 -11 20 -13 20 -4 0 6 9 -3 20 -21 11 -18 20 -41 20 -52 0 -11 3 -20 8 -20
4 0 8 -17 9 -37 3 -46 6 -64 16 -80 5 -7 5 -13 2 -13 -4 0 7 -12 24 -26 17
-14 31 -35 31 -45 0 -11 7 -22 15 -25 8 -4 15 -12 15 -20 0 -8 7 -14 15 -14 8
0 15 -6 15 -13 0 -17 38 -39 53 -31 7 4 26 20 42 35 17 15 44 40 61 56 17 16
36 27 42 25 5 -1 17 4 26 14 9 9 23 14 30 11 7 -3 19 0 25 6 8 8 11 8 11 -1 0
-7 4 -12 9 -12 5 0 22 -5 38 -12 15 -6 33 -12 38 -13 6 0 17 -4 25 -7 28 -12
75 -20 120 -23 25 -1 50 -3 55 -5 6 -1 15 -3 20 -4 64 -11 95 -19 95 -27 0 -5
11 -9 24 -9 14 0 28 -4 31 -10 3 -5 20 -10 38 -11 18 0 75 -2 127 -3 94 -3
250 11 260 23 5 6 27 9 120 14 30 1 61 7 69 12 13 7 56 15 86 15 81 0 152 -6
149 -12 -3 -4 2 -8 10 -8 9 0 16 8 16 18 1 15 2 14 12 -3 12 -19 12 -19 19 5
l7 25 1 -27 c1 -30 31 -41 31 -12 0 8 5 12 10 9 6 -4 8 -10 5 -15 -3 -4 30
-12 72 -16 86 -8 96 -8 198 -2 39 2 84 0 100 -4 17 -5 47 -11 69 -13 24 -2 44
-11 53 -24 8 -12 21 -21 29 -21 9 0 12 -5 8 -11 -3 -6 -2 -14 3 -18 16 -11 64
-111 58 -121 -3 -6 1 -7 9 -4 20 8 21 -13 2 -52 -7 -16 -20 -44 -27 -61 -8
-18 -21 -33 -30 -33 -9 0 -20 -7 -23 -16 -3 -8 -10 -12 -16 -9 -5 3 -10 2 -10
-3 0 -9 -55 -37 -72 -37 -3 0 -10 -3 -14 -7 -4 -5 -14 -8 -23 -8 -9 0 -23 -4
-31 -10 -12 -7 -12 -12 4 -28 9 -11 27 -23 39 -26 20 -5 63 -61 59 -77 -1 -4
8 -39 18 -78 11 -39 20 -75 20 -80 0 -16 -51 -71 -61 -65 -5 3 -9 -4 -9 -15 0
-26 -30 -28 -65 -5 -30 20 -33 39 -4 23 15 -8 24 -8 32 0 8 8 6 11 -6 11 -9 0
-17 5 -17 10 0 6 -9 19 -20 30 -11 11 -20 28 -20 38 0 22 -23 46 -66 72 -54
32 -72 93 -49 166 6 18 2 22 -24 26 -17 2 -36 1 -43 -4 -7 -4 -25 -8 -39 -8
-23 0 -28 -6 -34 -36 -14 -76 -33 -95 -108 -109 -61 -12 -96 25 -112 118 -7
46 -28 48 -49 5 -20 -38 -20 -38 -1 -38 23 0 28 -25 11 -53 -16 -23 -39 -28
-63 -14 -7 5 -16 -1 -23 -12 -9 -18 -14 -19 -38 -9 -15 7 -31 17 -37 23 -34
39 -112 47 -152 15 -14 -11 -32 -20 -39 -20 -8 0 -14 -6 -14 -14 0 -15 -68
-28 -76 -14 -3 5 -14 6 -25 3 -12 -4 -20 -1 -20 7 -1 7 -3 20 -4 28 -1 8 -3
23 -4 33 0 11 -6 15 -13 11 -7 -5 -8 -3 -4 5 5 7 3 25 -4 41 -18 45 -70 53
-70 12 0 -9 -12 -23 -27 -29 -35 -15 -59 -51 -45 -65 7 -7 7 -19 1 -36 -7 -18
-6 -28 3 -34 10 -6 9 -8 -3 -8 -9 0 -19 -9 -22 -20 -3 -13 -11 -18 -20 -14 -8
3 -18 1 -22 -5 -3 -6 -17 -8 -32 -5 -18 5 -24 3 -19 -5 11 -17 -23 -14 -40 4
-9 8 -24 15 -35 15 -11 0 -50 15 -88 34 -66 32 -121 39 -121 14 0 -5 -4 -7 -9
-4 -5 4 -11 3 -13 -1 -1 -5 -28 -27 -59 -50 -89 -68 -161 -56 -195 33 -13 35
-25 48 -61 65 l-44 21 -43 -44 c-48 -49 -127 -91 -134 -70 -6 18 -72 16 -72
-3 0 -8 -3 -15 -7 -15 -5 0 -38 -29 -74 -64 -51 -48 -74 -63 -98 -64 -19 0
-31 4 -31 12 0 7 -11 19 -25 26 -14 7 -32 24 -40 37 -37 56 -145 5 -145 -69 0
-18 13 -55 28 -83 16 -27 41 -71 55 -97 23 -39 27 -59 27 -122 0 -70 -2 -76
-29 -99 -17 -14 -27 -27 -25 -30 3 -3 -18 -4 -48 -2 -50 4 -51 3 -17 -6 20 -6
63 -36 99 -69 63 -58 63 -59 86 -41 15 12 42 19 78 20 30 0 66 5 81 11 47 18
78 12 118 -24 52 -46 88 -51 184 -25 43 12 106 29 141 38 35 9 63 21 63 26 1
15 9 20 9 5 0 -10 13 -11 55 -6 54 6 86 -3 110 -31 10 -12 116 -74 149 -86 15
-6 17 -4 12 15 -21 73 -21 72 29 87 36 10 127 14 374 15 280 1 336 -1 401 -17
67 -16 89 -28 90 -50 0 -4 -38 -25 -84 -47 -101 -48 -162 -55 -376 -42 -80 5
-148 7 -153 5 -4 -2 -2 -13 3 -23 6 -11 12 -34 14 -52 6 -51 36 -68 114 -66
43 1 83 -4 112 -15 25 -10 74 -22 110 -27 307 -42 548 -95 789 -172 53 -17 65
-18 72 -7 6 10 9 8 9 -8 0 -13 4 -23 8 -23 5 0 8 9 8 20 -1 10 2 18 5 17 3 -1
13 6 23 16 10 9 26 17 37 17 10 0 19 5 19 11 0 5 5 7 10 4 6 -4 8 -12 4 -18
-3 -7 0 -5 8 3 7 8 22 17 33 18 11 2 23 9 27 15 4 7 8 8 9 2 0 -5 4 -1 9 10 7
17 9 17 9 3 1 -21 3 -21 35 -7 14 7 23 16 20 21 -3 5 6 6 19 3 14 -4 35 -1 48
6 14 7 24 8 26 2 2 -6 22 -7 48 -3 24 4 42 3 39 -2 -3 -4 3 -11 13 -14 21 -7
39 -14 108 -45 28 -13 53 -22 58 -21 13 4 80 -28 74 -35 -4 -3 -1 -13 6 -21
10 -13 8 -14 -15 -10 -16 3 -28 1 -28 -5 0 -5 -15 -7 -36 -4 -41 7 -64 0 -64
-19 0 -8 -11 -13 -27 -12 -16 0 -43 -4 -60 -10 -23 -7 -33 -7 -33 0 0 7 -5 6
-15 -2 -8 -6 -19 -9 -25 -5 -6 3 -10 -3 -10 -15 0 -13 -4 -19 -11 -14 -21 12
-94 11 -107 -3 -20 -19 -32 -16 -33 10 0 21 -1 21 -9 2 -8 -19 -9 -19 -9 3 -1
23 -36 32 -43 11 -4 -13 -4 -13 -95 34 -29 15 -55 23 -57 18 -3 -5 16 -26 42
-47 131 -105 169 -155 188 -252 13 -67 6 -147 -17 -212 -9 -24 -9 -24 7 -5 24
31 51 86 63 133 12 42 27 52 49 30 9 -9 12 -5 13 17 1 26 3 23 16 -19 14 -44
13 -56 -1 -113 -8 -35 -31 -88 -51 -117 -37 -56 -44 -76 -21 -57 18 16 318 21
491 9 72 -5 140 -8 153 -8 39 0 194 -28 236 -43 37 -13 40 -12 64 10 17 15 32
21 45 17 13 -4 17 -2 13 5 -4 6 3 15 16 20 13 6 17 10 11 10 -7 1 -13 7 -13
15 0 9 9 13 25 11 14 -1 25 3 24 9 -3 25 14 54 42 70 16 9 29 21 29 27 0 5 7
9 15 9 8 0 12 6 9 14 -3 8 -1 17 5 21 6 3 11 15 11 27 0 13 5 18 14 15 10 -4
13 -1 9 9 -3 9 1 14 12 14 12 0 15 5 10 22 -6 16 -4 20 8 15 11 -4 14 -1 11 7
-3 7 2 19 11 26 8 7 15 21 15 31 0 11 8 20 18 21 31 2 56 -2 63 -13 8 -14 59
0 59 17 0 23 16 16 17 -7 1 -12 7 -27 12 -32 8 -8 11 5 11 41 0 40 -4 52 -15
52 -8 0 -15 -8 -16 -17 0 -11 -3 -13 -6 -5 -2 6 -16 12 -29 12 -13 0 -24 4
-24 9 0 14 -63 26 -68 12 -7 -22 -33 -10 -82 39 -27 28 -54 50 -59 50 -6 0
-35 9 -66 21 -61 23 -84 51 -64 75 12 14 68 43 111 58 14 4 16 12 11 38 -3 18
-10 41 -15 51 -7 13 -4 19 14 26 l23 9 -26 10 c-35 14 -58 48 -51 74 3 13 -4
28 -22 44 -14 14 -26 28 -26 33 0 4 -10 13 -22 20 -71 38 -91 51 -78 49 8 0
28 4 43 10 16 7 35 12 43 12 33 0 104 25 104 37 0 8 -14 28 -32 45 -27 26 -29
32 -15 39 9 5 14 16 11 24 -4 8 -1 15 5 15 6 0 11 5 11 10 0 6 -9 10 -19 10
-11 0 -22 4 -26 9 -3 6 -22 4 -47 -5 -45 -16 -104 -19 -112 -5 -3 5 -27 12
-52 16 -41 6 -52 3 -103 -29 -31 -19 -81 -41 -111 -49 -30 -9 -45 -16 -33 -16
58 -2 164 -81 109 -81 -26 0 -124 42 -146 62 -18 17 -31 20 -75 15 -47 -5 -58
-2 -111 30 -69 41 -60 33 -68 59 -6 20 -1 23 69 39 42 9 88 23 103 31 15 7 32
14 38 14 5 0 30 10 55 22 28 14 39 23 29 26 -8 3 -18 10 -22 16 -6 9 -26 13
-86 15 -54 2 -133 131 -142 229 -3 34 -2 62 2 62 5 0 8 5 8 10 0 6 -7 10 -15
10 -8 0 -15 6 -15 13 0 7 -14 13 -32 14 -18 1 -41 3 -51 3 -9 1 -15 5 -13 9 3
5 -5 18 -18 30 -25 23 -26 33 -14 166 3 25 -1 30 -18 29 -27 -1 -27 28 1 39
11 5 15 11 10 15 -14 10 -13 62 0 62 15 0 45 -33 45 -49 0 -14 57 -6 74 10 6
5 23 9 39 9 46 0 157 22 157 32 0 4 -4 8 -10 8 -5 0 -10 5 -10 11 0 6 7 9 15
5 8 -3 15 -2 15 2 0 11 51 29 89 31 48 2 71 -7 71 -30 0 -11 5 -17 10 -14 6 3
10 -1 10 -9 0 -15 13 -19 118 -45 50 -13 258 -39 362 -46 47 -3 114 -8 150
-11 36 -3 71 -6 78 -7 6 0 12 -4 12 -9 0 -4 5 -8 10 -8 7 0 10 275 10 805 l0
805 -259 0 -259 0 3 -22z m-1670 -448 c74 -17 99 -20 225 -26 181 -10 215 -12
220 -14 3 -1 8 -2 13 -1 4 0 7 -3 7 -9 0 -5 18 -13 40 -16 22 -4 37 -10 34
-15 -3 -5 3 -9 13 -9 30 -1 55 -47 57 -103 1 -32 7 -57 16 -65 8 -8 9 -11 3
-7 -8 4 -13 0 -13 -9 0 -9 -4 -16 -10 -16 -5 0 -10 -9 -10 -20 0 -11 -7 -20
-15 -20 -8 0 -15 -7 -15 -16 0 -10 -16 -37 -36 -60 -28 -36 -39 -42 -53 -35
-12 7 -26 5 -44 -4 -15 -7 -29 -10 -31 -6 -8 13 -113 11 -185 -3 -40 -7 -78
-9 -91 -4 -12 4 -25 6 -29 4 -3 -2 -33 -7 -66 -11 -33 -3 -61 -10 -63 -16 -2
-5 -15 -9 -28 -9 -13 0 -24 -5 -24 -11 0 -12 -76 -9 -215 10 -38 5 -88 12
-110 15 -22 2 -60 12 -85 21 -74 26 -211 29 -315 7 -49 -11 -94 -17 -100 -14
-5 3 -24 6 -42 5 -18 0 -33 3 -33 7 0 6 -38 15 -105 25 -13 2 -42 13 -85 33
-19 8 -38 15 -42 14 -5 -1 -7 3 -5 10 1 7 -14 15 -38 18 -22 3 -51 12 -63 19
-13 7 -35 10 -48 7 -13 -4 -24 -2 -24 4 0 5 -13 16 -30 25 -20 10 -30 23 -29
38 0 12 -2 37 -5 55 -4 24 -1 32 10 32 8 0 12 5 9 10 -4 6 -11 8 -16 5 -23
-15 -5 16 25 43 19 17 32 33 29 36 -4 3 3 6 15 6 11 0 24 -5 27 -10 5 -8 11
-7 21 1 11 9 14 9 14 -1 0 -10 3 -10 15 0 9 7 15 8 15 2 0 -5 16 -10 35 -9 19
1 35 5 35 9 0 4 8 8 18 8 10 0 38 9 61 21 24 11 53 22 65 23 11 2 30 7 41 12
20 8 203 10 245 2 14 -2 38 -10 54 -17 47 -19 172 -15 215 8 10 6 27 7 39 4
13 -3 22 -1 22 6 0 7 9 9 23 6 12 -3 35 -2 51 3 47 13 336 15 391 2z m1405
-431 c7 -11 9 -28 5 -37 -3 -9 -5 -18 -3 -20 2 -2 -5 -8 -15 -13 -9 -6 -15
-14 -12 -18 2 -5 -7 -11 -20 -14 -17 -3 -29 1 -36 12 -7 12 -12 13 -15 4 -9
-20 -37 -16 -30 3 5 13 2 15 -14 11 -11 -3 -20 -1 -20 4 0 9 14 13 38 10 16
-2 15 9 -3 29 -13 14 -12 16 5 16 11 0 20 -6 20 -13 0 -16 16 -17 26 -1 4 6 2
14 -4 16 -7 2 -10 8 -6 13 9 15 22 10 27 -8 4 -14 5 -12 6 5 1 29 36 30 51 1z
m-63 -281 c-3 -8 -6 -5 -6 6 -1 11 2 17 5 13 3 -3 4 -12 1 -19z m20 -53 c1
-16 4 -45 7 -62 4 -25 2 -33 -9 -33 -8 0 -15 -4 -15 -10 0 -5 -5 -10 -12 -10
-6 0 -4 8 6 19 10 11 16 26 13 33 -4 8 -6 7 -6 -4 -1 -20 -26 -24 -36 -8 -4 6
-1 17 5 25 10 12 9 15 -10 15 -16 0 -20 4 -16 15 3 8 1 15 -4 15 -6 0 -10 5
-10 11 0 7 14 10 35 7 36 -4 48 7 18 16 -11 3 -7 4 7 3 20 -2 25 -8 27 -32z
m-661 -162 c-10 -10 -19 5 -10 18 6 11 8 11 12 0 2 -7 1 -15 -2 -18z m642 -1
l4 -24 -21 21 c-26 26 -26 34 -3 29 9 -2 18 -14 20 -26z m-495 -32 c10 0 15
-4 12 -10 -3 -5 0 -7 8 -4 10 3 16 -3 19 -20 4 -18 1 -26 -8 -26 -8 0 -14 -4
-14 -10 0 -5 5 -10 12 -10 6 0 9 -3 6 -6 -4 -3 -8 -4 -11 -2 -2 2 -11 -3 -20
-11 -9 -7 -23 -11 -30 -8 -10 4 -12 -3 -9 -27 l4 -31 -22 21 c-32 31 -45 100
-24 131 11 18 22 23 37 19 12 -3 30 -6 40 -6z m20 -177 c-7 -2 -19 -2 -25 0
-7 3 -2 5 12 5 14 0 19 -2 13 -5z m-175 -102 c18 -11 5 -61 -15 -61 -17 0 -42
28 -43 47 0 10 11 16 40 22 3 0 11 -3 18 -8z m-40 -514 c19 -15 42 -62 42 -85
0 -29 -35 -55 -64 -48 -28 7 -99 100 -94 124 6 30 82 36 116 9z m-2354 -108
c14 2 17 -2 12 -14 -3 -9 -6 -23 -6 -31 0 -9 -4 -13 -10 -9 -5 3 -7 12 -3 20
3 8 0 15 -6 15 -6 0 -11 -9 -11 -21 0 -11 -4 -17 -10 -14 -5 3 -10 20 -10 36
0 22 4 28 13 22 6 -4 21 -6 31 -4z m61 -29 c4 -6 -6 -10 -22 -10 -22 0 -25 2
-13 10 19 12 27 12 35 0z m2363 -46 c26 -18 27 -27 7 -48 -24 -24 -94 3 -95
37 0 8 36 25 55 26 6 1 21 -6 33 -15z m309 -560 c-3 -3 -12 -4 -19 -1 -8 3 -5
6 6 6 11 1 17 -2 13 -5z m-397 -65 c0 -6 -4 -7 -10 -4 -5 3 -10 11 -10 16 0 6
5 7 10 4 6 -3 10 -11 10 -16z m1100 -559 c0 -5 -4 -10 -10 -10 -5 0 -10 5 -10
10 0 6 5 10 10 10 6 0 10 -4 10 -10z"/>
<path d="M391 5780 c-1 -8 -14 -21 -31 -28 -18 -8 -30 -21 -30 -33 0 -10 -5
-19 -11 -19 -5 0 -7 -4 -4 -10 3 -5 3 -10 -2 -10 -4 0 -14 -19 -21 -42 -7 -23
-22 -54 -34 -70 -12 -18 -17 -35 -13 -46 16 -38 23 -82 13 -82 -6 0 -6 -6 2
-15 13 -16 42 -267 33 -290 -3 -8 1 -15 8 -15 7 0 9 -3 6 -7 -17 -16 51 -40
116 -41 44 0 77 -6 92 -16 13 -9 31 -16 40 -16 8 0 15 -4 15 -10 0 -5 6 -10
13 -10 6 0 33 -11 58 -24 59 -29 87 -37 95 -24 4 5 19 7 35 4 16 -3 29 -1 29
4 0 6 3 9 8 8 4 -1 20 5 35 12 24 12 30 12 38 -1 7 -11 9 -11 9 4 0 14 5 17
20 12 14 -5 20 -2 20 9 0 9 5 16 10 16 6 0 10 -4 10 -9 0 -14 37 -20 49 -8 9
9 17 8 31 -1 30 -18 35 -14 14 10 -15 18 -16 20 -2 9 10 -7 26 -11 37 -8 10 2
25 0 34 -4 10 -6 18 -5 22 1 7 11 86 2 95 -10 9 -13 68 -20 72 -8 4 12 47 -6
60 -25 4 -7 12 -6 22 2 12 11 16 11 16 1 0 -9 3 -10 13 -1 10 8 17 7 26 -2 10
-9 15 -8 27 8 12 16 17 17 23 6 7 -10 12 -8 24 9 16 23 42 18 33 -6 -7 -18 13
-18 58 1 33 14 41 14 67 1 17 -8 36 -13 44 -10 7 3 15 1 18 -4 7 -10 98 -6
106 5 3 4 20 9 36 10 17 1 55 5 85 8 30 3 123 6 206 8 99 1 156 6 166 14 16
14 69 13 79 -1 4 -5 27 -2 52 7 31 10 47 12 49 5 3 -7 17 -5 41 7 20 9 51 19
69 21 18 3 60 9 93 14 197 28 381 -16 401 -98 4 -15 10 -29 14 -32 15 -12 36
-88 35 -130 -1 -58 -24 -151 -42 -168 -7 -7 -13 -19 -13 -26 0 -7 -13 -25 -30
-41 -16 -15 -27 -32 -24 -36 3 -5 -7 -11 -21 -15 -14 -3 -25 -13 -25 -20 0 -8
-11 -20 -25 -26 -14 -6 -25 -15 -25 -20 0 -4 -43 -7 -95 -7 -63 1 -100 -3
-110 -11 -8 -7 -21 -10 -30 -7 -8 4 -17 2 -20 -3 -3 -5 7 -12 22 -16 15 -4 33
-11 40 -16 6 -5 24 -6 40 -3 16 3 21 2 11 -2 -15 -7 -15 -10 2 -30 14 -18 19
-20 24 -8 4 12 10 13 31 3 14 -6 25 -17 25 -25 0 -7 6 -13 14 -13 8 0 17 -6
19 -12 4 -10 8 -9 16 2 9 13 11 13 11 -2 0 -13 8 -18 26 -18 14 0 23 4 19 10
-10 16 12 12 29 -5 8 -8 19 -15 25 -15 6 0 11 -4 11 -10 0 -5 9 -10 21 -10 23
0 72 -34 62 -43 -3 -3 6 -4 20 -2 21 4 24 2 20 -15 -4 -16 -2 -19 11 -14 12 5
16 0 16 -22 0 -23 2 -26 10 -14 7 10 12 11 18 4 4 -6 15 -14 25 -17 11 -4 21
-16 24 -27 3 -11 9 -17 14 -14 5 3 12 -2 15 -11 4 -9 13 -14 20 -11 8 3 14 1
14 -4 0 -18 19 -10 25 9 4 13 12 18 23 15 12 -4 13 -3 5 3 -12 8 -9 105 4 126
2 4 -1 7 -7 7 -6 0 -1 14 11 31 19 27 21 38 14 92 -18 140 -11 234 18 263 4 4
7 14 7 23 0 9 7 28 14 43 12 23 21 79 25 166 1 7 5 11 9 8 5 -3 6 9 4 26 -4
29 13 101 30 124 4 6 5 14 1 17 -3 4 -1 12 5 19 5 7 12 36 15 63 8 79 18 119
30 128 9 5 8 10 -3 17 -8 5 -11 10 -6 10 5 0 2 8 -5 17 -12 15 -12 16 5 10 16
-6 17 -4 11 15 -3 13 -6 30 -6 38 0 31 -21 110 -30 110 -5 0 -9 7 -9 15 0 8
-6 15 -13 15 -8 0 -25 12 -39 28 -42 45 -63 59 -99 64 -38 6 -97 -15 -106 -38
-5 -13 -7 -13 -14 -2 -7 10 -9 9 -9 -4 0 -11 -5 -15 -14 -12 -7 3 -16 -2 -19
-10 -4 -9 -11 -16 -17 -16 -17 0 -90 -63 -90 -78 0 -7 -4 -11 -9 -8 -12 8 -69
-22 -81 -42 -5 -9 -10 -12 -10 -6 0 13 -60 14 -60 1 0 -5 -6 -4 -14 2 -16 13
-82 5 -92 -10 -3 -5 -10 -6 -16 -3 -6 4 -62 8 -125 9 -62 2 -119 7 -126 12
-16 13 -178 33 -309 39 -56 2 -121 7 -143 10 -22 2 -62 7 -89 9 -27 3 -51 7
-54 10 -3 3 -11 0 -19 -6 -10 -9 -13 -8 -13 1 0 10 -3 10 -15 0 -12 -10 -18
-10 -30 0 -9 7 -26 10 -42 6 -16 -4 -50 -6 -76 -6 -27 1 -47 -3 -44 -7 3 -4
-10 -8 -29 -8 -19 0 -34 4 -34 8 0 5 -25 7 -55 5 -30 -1 -55 1 -55 6 0 5 -7 3
-15 -4 -8 -6 -18 -9 -23 -6 -4 2 -30 8 -58 11 -27 4 -60 8 -74 11 -14 2 -43 6
-65 8 -22 3 -62 10 -90 16 -27 7 -68 14 -90 17 -22 2 -58 8 -80 13 -53 13 -68
12 -59 -1 4 -7 -3 -6 -17 2 -13 7 -37 15 -54 17 -16 2 -34 8 -39 13 -13 12
-93 11 -117 -2 -15 -7 -24 -7 -34 1 -9 8 -29 9 -56 5 -47 -8 -128 11 -136 32
-3 7 -11 13 -18 13 -7 0 -15 7 -19 15 -3 8 -12 12 -21 9 -10 -4 -15 0 -15 10
0 9 -7 19 -15 22 -8 4 -15 15 -15 26 0 20 -22 48 -37 48 -10 0 -38 31 -46 51
-4 11 -6 11 -6 -1z m874 -750 c3 -5 1 -10 -4 -10 -6 0 -11 5 -11 10 0 6 2 10
4 10 3 0 8 -4 11 -10z"/>
<path d="M7925 5750 c-3 -5 1 -10 10 -10 9 0 13 5 10 10 -3 6 -8 10 -10 10 -2
0 -7 -4 -10 -10z"/>
<path d="M8327 5673 c6 -16 11 -16 28 1 12 12 11 14 -9 12 -14 0 -22 -6 -19
-13z"/>
<path d="M8370 5658 c-12 -22 -12 -22 6 -6 10 10 15 20 12 24 -4 3 -12 -5 -18
-18z"/>
<path d="M975 4770 c-3 -5 -22 -10 -40 -10 -29 0 -36 -4 -41 -25 -3 -14 -9
-23 -13 -21 -4 3 -12 -4 -19 -15 -10 -16 -9 -19 4 -19 12 0 14 -5 9 -17 -4
-10 -10 -29 -13 -43 -4 -20 -2 -23 9 -12 7 6 20 12 28 12 8 0 23 8 33 17 14
12 37 16 93 16 68 0 95 9 63 20 -7 2 -2 2 11 0 13 -2 59 -1 103 3 74 6 78 8
72 28 -9 28 -16 34 -21 19 -5 -14 -24 -18 -22 -5 1 4 1 16 0 27 -2 20 -2 20
-16 1 -13 -17 -15 -18 -15 -3 0 20 -11 22 -28 5 -8 -8 -18 -9 -34 -1 -13 6
-37 8 -54 6 -18 -3 -35 0 -39 7 -5 8 -10 8 -21 -1 -11 -9 -15 -8 -20 5 -7 18
-20 21 -29 6z"/>
<path d="M1763 4763 c18 -5 22 -15 10 -26 -3 -4 -15 1 -26 10 -19 18 -19 17
-12 -14 6 -32 -8 -48 -18 -20 -3 8 -10 6 -21 -8 -21 -28 -20 -33 11 -37 14 -2
29 -10 31 -18 5 -13 3 -13 -12 -1 -15 12 -19 12 -34 -2 -15 -16 -15 -17 2 -17
10 0 24 -8 31 -17 11 -15 15 -15 29 -4 11 9 16 10 16 2 0 -6 7 -11 15 -11 8 0
15 5 15 10 0 6 5 10 11 10 6 0 8 -9 4 -22 -6 -19 -5 -21 6 -10 7 6 21 12 31
12 10 0 27 6 38 13 16 9 22 9 28 0 5 -8 12 -7 27 4 14 11 16 17 8 20 -7 3 -13
10 -13 17 0 7 -11 19 -25 26 -19 10 -22 17 -14 31 9 18 5 23 -14 20 -4 -1 -10
6 -13 14 -8 20 -23 19 -46 -2 -15 -13 -21 -14 -31 -4 -9 9 -9 14 3 21 11 7 6
9 -20 9 -19 -1 -27 -3 -17 -6z m107 -137 c0 -2 -7 -6 -15 -10 -8 -3 -15 -1
-15 4 0 6 7 10 15 10 8 0 15 -2 15 -4z"/>
<path d="M1287 4723 c-15 -14 -5 -21 37 -24 24 -2 42 -1 39 4 -2 4 -18 7 -34
7 -18 0 -28 4 -24 10 7 11 -8 14 -18 3z"/>
<path d="M5232 4608 c7 -19 38 -22 38 -4 0 10 -9 16 -21 16 -12 0 -19 -5 -17
-12z"/>
<path d="M335 4590 c3 -5 8 -10 11 -10 2 0 4 5 4 10 0 6 -5 10 -11 10 -5 0 -7
-4 -4 -10z"/>
<path d="M360 4579 c-8 -4 -36 -11 -63 -14 -29 -4 -45 -10 -41 -17 4 -6 -1 -8
-14 -4 -11 4 -38 -1 -59 -10 -25 -11 -62 -16 -110 -15 l-73 1 0 -2260 0 -2260
3363 0 c1849 0 3372 3 3385 6 14 4 21 12 18 20 -3 7 -1 16 4 19 6 4 10 1 10
-5 0 -19 28 -42 35 -29 4 6 2 16 -4 22 -15 15 -14 40 1 35 7 -3 15 -15 19 -29
6 -21 7 -21 8 9 1 27 -3 32 -21 33 -17 1 -19 2 -5 6 9 2 17 9 17 14 0 5 12 9
28 9 25 1 24 2 -11 15 -52 18 -54 22 -13 29 20 4 35 10 34 14 -3 15 15 42 29
42 8 0 11 5 8 10 -4 6 -11 7 -18 3 -19 -12 -59 -9 -64 4 -3 7 -9 13 -14 13 -4
0 -5 -8 -2 -17 5 -12 1 -11 -15 5 -26 26 -28 37 -7 28 10 -4 15 1 15 14 0 11
9 29 20 40 23 23 28 72 6 64 -8 -3 -16 3 -19 15 -4 16 0 21 13 21 21 0 44 -25
36 -39 -4 -5 -1 -13 5 -17 8 -5 10 3 7 25 -4 28 -2 31 16 25 17 -4 18 -3 6 5
-19 13 -87 14 -95 1 -3 -5 -24 -8 -46 -6 -32 3 -37 1 -28 -10 12 -15 4 -34
-14 -33 -9 0 -9 2 1 6 24 10 11 18 -28 18 -22 0 -40 -3 -40 -7 0 -5 5 -8 10
-8 6 0 10 -5 10 -11 0 -6 -6 -9 -14 -6 -7 3 -19 0 -25 -6 -18 -18 -25 1 -8 21
10 10 17 21 17 23 0 2 -21 3 -47 2 -29 -1 -36 1 -18 4 16 3 33 9 36 15 4 7 14
6 28 -2 12 -6 27 -9 34 -6 7 2 4 5 -5 5 -21 1 -24 17 -5 24 6 2 -12 6 -41 8
-41 3 -52 1 -52 -11 0 -9 -3 -11 -8 -4 -4 6 -15 13 -25 17 -18 7 -18 16 0 64
3 7 0 13 -6 13 -8 0 -7 6 1 20 8 12 25 21 43 21 23 1 25 3 8 6 -27 5 -30 31
-5 39 51 16 66 26 53 34 -10 6 -8 9 8 15 16 5 20 12 15 31 -4 15 -1 26 7 29 8
3 15 21 17 41 3 44 8 54 30 54 12 0 18 9 20 26 2 22 0 25 -13 14 -12 -10 -18
-10 -29 -1 -11 9 -16 9 -21 0 -6 -8 -10 -8 -16 2 -4 7 -11 10 -14 7 -4 -4 2
-16 13 -28 17 -18 18 -26 9 -51 -9 -24 -13 -26 -20 -13 -6 11 -5 19 4 25 10 6
11 9 1 9 -6 0 -11 4 -10 9 3 8 -2 11 -18 11 -4 0 -1 -7 6 -15 8 -9 9 -15 2
-15 -6 0 -13 4 -16 8 -3 5 -20 9 -38 10 l-33 1 31 -14 c18 -7 35 -18 38 -24
11 -17 -11 -13 -29 5 -20 20 -33 10 -15 -11 11 -13 10 -14 -4 -9 -9 3 -16 12
-16 19 0 7 -7 16 -16 19 -24 9 -28 7 -15 -8 7 -9 8 -17 3 -20 -9 -5 -22 15
-22 34 0 9 49 24 68 21 6 -1 12 3 12 9 0 5 -9 10 -20 10 -33 0 -21 32 18 44
12 4 22 12 22 17 0 5 8 9 18 10 10 0 12 3 5 6 -7 2 -13 11 -13 18 0 11 5 11
28 -1 24 -12 28 -12 40 3 10 15 9 19 -10 30 l-23 13 22 6 c12 3 19 12 17 19
-3 7 -1 16 5 20 6 3 11 -1 11 -9 0 -9 5 -16 10 -16 13 0 13 23 1 36 -6 5 3 10
25 12 43 3 77 19 68 33 -4 6 -12 4 -23 -5 -26 -24 -44 -21 -29 4 7 12 22 20
33 19 40 -3 84 14 109 41 28 32 56 31 71 -2 6 -12 16 -23 23 -24 7 -1 8 0 2 3
-20 10 -9 20 16 15 14 -2 21 -8 16 -11 -6 -4 -15 -19 -21 -34 -7 -18 -15 -25
-26 -21 -25 10 -44 -3 -38 -25 6 -24 33 -29 33 -6 0 8 9 15 20 15 11 0 19 6
18 13 -2 8 12 11 50 9 30 -1 52 2 52 8 0 5 -6 10 -14 10 -7 0 -18 6 -24 13 -9
10 -4 13 23 13 23 0 36 -5 38 -16 4 -12 5 -12 6 2 1 12 6 15 18 11 11 -4 14
-3 9 5 -4 7 -3 12 3 12 5 0 16 3 25 6 10 4 16 1 16 -8 0 -12 10 -13 57 -7 31
4 60 14 65 21 6 11 10 10 17 -2 7 -10 6 -17 -2 -22 -8 -5 -3 -8 11 -8 13 0 21
3 19 8 -3 4 8 6 24 6 43 -2 45 -3 29 -14 -30 -19 -2 -19 38 0 45 22 78 27 52
9 -13 -9 -12 -10 3 -5 9 3 37 2 62 -3 25 -5 45 -5 45 -1 0 5 9 6 20 3 11 -3
20 -11 20 -19 0 -8 -6 -11 -15 -8 -8 4 -15 1 -15 -5 0 -6 6 -11 14 -11 8 0 17
-8 19 -17 3 -11 5 -7 6 10 0 16 5 26 10 23 5 -3 7 -19 5 -36 -2 -16 1 -30 6
-30 6 0 10 5 10 10 0 13 40 13 60 0 13 -9 13 -11 0 -20 -19 -13 -8 -13 25 0
20 8 27 7 31 -5 9 -22 27 -18 21 4 -6 26 31 36 54 15 13 -12 22 -13 36 -5 16
9 14 10 -11 11 -16 0 -26 3 -23 7 4 4 33 6 65 5 31 -1 51 1 45 4 -18 8 -16 27
2 21 18 -7 30 9 13 17 -7 3 6 4 28 1 42 -5 64 11 44 31 -5 5 7 9 28 9 20 1 41
-4 45 -10 5 -5 6 2 3 18 -4 18 -2 27 6 28 37 5 54 3 66 -5 8 -6 12 -3 12 8 0
9 8 16 20 16 18 0 19 3 8 20 -10 15 -10 22 0 32 9 9 12 8 13 -7 0 -17 1 -17
10 3 5 13 13 20 19 17 5 -3 10 1 10 10 0 17 18 51 38 73 7 8 11 21 8 28 -3 8
0 11 10 7 7 -3 14 0 14 5 0 6 -6 12 -14 14 -10 2 -11 9 -3 28 16 39 18 51 22
118 2 36 -1 62 -6 62 -6 0 -9 6 -8 13 3 14 -10 47 -25 64 -29 33 -36 43 -36
50 0 13 -111 113 -126 113 -8 0 -14 5 -14 10 0 6 -4 10 -10 10 -5 0 -20 9 -32
20 -47 41 -54 45 -77 42 -13 -2 -21 0 -17 6 3 6 -2 8 -13 5 -21 -5 -37 12 -21
22 5 3 34 8 65 10 30 3 62 9 72 14 24 12 120 41 158 48 34 5 141 40 166 54 14
7 15 14 6 49 -9 30 -15 39 -27 34 -8 -3 -55 -14 -105 -25 -49 -10 -115 -26
-145 -34 -67 -19 -298 -55 -350 -55 -20 0 -59 -7 -86 -15 -27 -9 -85 -18 -129
-21 -44 -2 -105 -9 -135 -14 -30 -5 -93 -12 -140 -14 -100 -6 -202 -25 -212
-40 -6 -8 -10 -7 -16 2 -7 10 -185 31 -280 32 -21 0 -41 24 -30 36 3 2 57 18
119 34 63 16 129 34 148 39 19 6 107 15 197 21 164 10 259 24 269 40 3 4 15 6
27 2 12 -3 19 -1 15 4 -3 5 12 8 35 6 22 -3 45 1 51 7 14 14 30 15 22 1 -8
-13 16 -13 49 0 14 5 44 12 68 15 75 9 153 40 153 60 0 27 -43 54 -105 65 -62
12 -325 15 -353 5 -9 -4 -31 -2 -47 5 -25 10 -35 9 -74 -9 -24 -12 -49 -28
-56 -35 -6 -8 -32 -17 -58 -21 -26 -3 -60 -8 -77 -11 -16 -3 -109 -32 -205
-64 -165 -56 -286 -90 -390 -111 -25 -5 -70 -18 -100 -28 -98 -35 -193 -61
-219 -61 -14 0 -87 -12 -161 -26 -74 -14 -173 -29 -220 -34 -115 -12 -282 -38
-333 -51 -23 -6 -62 -13 -87 -15 -199 -19 -260 -27 -365 -48 -141 -29 -257
-43 -491 -58 -207 -13 -235 -9 -255 35 l-14 32 -77 0 c-59 0 -78 3 -78 13 0 9
-7 11 -20 7 -12 -4 -20 -2 -20 5 0 6 -5 8 -11 5 -6 -4 -13 1 -15 12 -5 19
-101 70 -111 59 -4 -3 -12 -1 -18 4 -13 11 -64 -10 -85 -35 -18 -21 -37 -18
-43 6 -4 15 3 29 22 48 43 40 87 201 55 201 -17 0 -17 0 2 39 9 18 14 42 11
54 -3 12 1 31 9 41 8 11 14 17 14 13 0 -4 10 -3 21 4 31 16 23 94 -14 131 -15
15 -27 31 -27 35 0 12 -154 10 -162 -2 -4 -6 -8 -1 -9 10 l0 20 -9 -20 -9 -20
0 20 c-1 17 -3 17 -11 5 -8 -13 -10 -12 -10 3 0 9 -7 17 -16 17 -8 0 -12 5 -9
11 4 6 -2 13 -14 16 -12 3 -21 9 -21 14 0 4 -12 7 -27 6 -22 -2 -29 -8 -31
-29 -2 -15 -13 -36 -25 -45 -19 -16 -21 -24 -15 -63 12 -82 11 -90 -17 -90
-17 0 -29 8 -37 25 -6 13 -24 29 -41 34 -30 11 -31 17 -12 65 7 15 5 17 -13
11 -14 -4 -22 -2 -22 5 0 7 -6 10 -14 7 -16 -6 -65 43 -92 93 -10 19 -31 50
-46 68 -16 18 -28 42 -28 53 0 42 -19 60 -54 54 -24 -5 -36 -2 -47 11 -11 14
-11 18 -1 22 7 2 25 14 41 27 25 22 30 23 54 10 23 -12 28 -12 36 3 8 14 11
14 35 -2 15 -9 30 -25 33 -34 10 -26 24 -32 73 -32 25 0 53 -7 64 -15 24 -19
14 -45 -15 -38 -19 5 -20 4 -10 -15 17 -33 46 -45 61 -26 8 9 29 14 54 14 53
-1 206 29 206 41 0 5 25 9 56 9 50 0 55 2 49 18 -4 9 -10 27 -12 40 -3 12 -9
22 -13 22 -4 0 -8 10 -9 23 -2 59 -8 73 -48 115 -41 42 -46 44 -109 48 -44 3
-64 1 -59 -6 4 -7 -2 -7 -20 0 -32 12 -45 13 -27 1 10 -6 9 -10 -7 -14 -12 -3
-19 -1 -15 4 3 5 -2 9 -10 9 -10 0 -13 -6 -9 -16 4 -12 0 -14 -19 -9 -16 4
-31 0 -48 -15 -13 -11 -35 -23 -49 -27 -14 -3 -40 -15 -58 -26 -27 -15 -43
-18 -81 -12 -26 4 -59 13 -74 21 -23 12 -31 12 -48 2 -18 -11 -23 -10 -35 6
-8 10 -12 23 -9 28 3 5 -2 15 -11 22 -10 7 -18 25 -17 39 0 15 -5 27 -10 27
-5 0 -7 -4 -3 -9 6 -11 -31 -25 -44 -16 -5 3 -12 1 -16 -5 -3 -5 1 -10 9 -10
9 0 16 -7 16 -15 0 -8 -4 -15 -10 -15 -5 0 -10 -7 -10 -16 0 -8 5 -12 10 -9 5
3 10 1 10 -4 0 -6 -4 -11 -9 -11 -5 0 -14 -24 -21 -52 -15 -68 -30 -108 -41
-108 -20 0 -30 -41 -18 -75 15 -41 1 -81 -33 -94 -13 -5 -31 -18 -42 -30 -13
-14 -23 -18 -35 -12 -37 20 -113 -12 -96 -39 9 -14 111 -5 131 11 8 6 20 9 28
6 8 -3 26 3 39 14 50 39 65 19 41 -54 -9 -28 -20 -54 -23 -57 -3 -3 -13 -18
-21 -35 -8 -16 -28 -50 -45 -75 -16 -25 -30 -47 -31 -50 -3 -19 -20 -47 -36
-61 -10 -9 -18 -21 -18 -26 0 -6 -13 -29 -30 -51 -16 -23 -30 -47 -30 -53 0
-8 -4 -8 -14 0 -10 8 -16 9 -21 1 -3 -5 -1 -10 6 -10 8 0 8 -4 -1 -15 -10 -13
-15 -13 -21 -3 -5 7 2 25 17 45 13 17 24 39 24 48 0 9 8 19 18 22 18 4 42 54
42 86 0 9 9 24 19 34 11 10 21 36 24 58 2 22 8 48 11 57 4 9 6 24 4 32 -2 12
-16 8 -70 -19 -38 -18 -99 -39 -137 -46 -56 -10 -71 -16 -80 -35 -11 -24 -22
-25 -121 -6 -19 3 -46 6 -60 7 -14 1 -36 7 -50 15 -14 8 -31 13 -37 12 -7 -2
-23 3 -35 10 -13 7 -30 13 -38 13 -8 0 -14 8 -14 16 1 12 -9 16 -45 16 -63 0
-202 33 -208 50 -3 7 -9 11 -13 8 -4 -3 -20 16 -35 41 -26 44 -26 46 -8 59 10
8 29 15 42 15 26 0 141 -48 141 -60 0 -6 66 -30 83 -30 5 0 2 45 -3 60 -2 3
-2 9 -1 13 1 5 -8 11 -19 14 -20 5 -20 6 4 28 14 13 49 27 87 34 70 14 209 55
241 72 14 8 23 8 31 0 8 -8 8 -11 -2 -11 -7 0 -9 -5 -4 -12 4 -7 8 -38 9 -69
0 -31 4 -61 8 -67 3 -6 2 -13 -3 -16 -16 -10 1 -46 23 -48 62 -5 92 -3 98 6
10 14 10 61 1 70 -5 4 -8 20 -8 34 0 20 -5 27 -20 28 -44 2 -45 4 -45 49 0 29
5 46 13 47 6 0 19 1 27 2 8 1 19 11 25 24 5 12 15 22 22 22 16 0 16 9 0 43
-13 29 -26 34 -45 15 -22 -22 -72 -17 -99 8 -22 21 -25 29 -19 69 6 38 14 50
50 78 l44 33 -29 17 c-16 9 -36 14 -43 11 -8 -3 -17 -1 -21 5 -9 15 -51 14
-67 -2 -7 -7 -25 -21 -40 -31 -15 -10 -25 -22 -22 -27 3 -5 0 -9 -6 -9 -6 0
-28 -18 -50 -41 -21 -23 -45 -39 -52 -36 -7 2 -23 -4 -35 -15 -17 -16 -25 -18
-42 -8 -18 9 -22 7 -31 -15 -8 -21 -14 -24 -35 -19 -29 7 -55 -10 -55 -37 0
-11 -9 -21 -23 -24 -31 -8 -53 -43 -32 -51 17 -7 18 -13 6 -32 -11 -19 -66
-23 -87 -7 -18 13 -17 16 16 85 29 60 32 74 22 90 -7 12 -10 37 -7 60 15 117
15 125 5 110 -8 -12 -10 -13 -10 -1 0 14 -15 7 -15 -7 0 -4 -7 -35 -14 -70
-14 -64 -26 -81 -119 -178 -18 -19 -42 -34 -55 -35 -12 0 -34 -3 -49 -5 -22
-4 -25 -1 -21 16 3 11 12 20 21 20 10 0 6 8 -14 23 -19 14 -30 32 -31 52 -2
21 0 26 7 16 7 -13 11 -13 25 -1 30 25 44 77 19 72 -8 -2 -14 0 -14 4 0 10 45
49 61 52 23 5 42 30 36 46 -3 8 -21 19 -39 24 -29 7 -33 12 -33 43 0 31 4 35
39 47 27 9 43 9 50 2 13 -13 56 -13 56 -1 0 6 -5 13 -11 17 -6 3 -9 19 -5 35
5 25 0 32 -40 59 -72 50 -133 34 -256 -67 -29 -24 -55 -43 -60 -43 -4 0 -8 -4
-8 -9 0 -6 -12 -23 -26 -38 -39 -42 -56 -91 -60 -167 -4 -94 -11 -100 -124
-101 -78 0 -91 -2 -96 -18 -3 -11 2 -27 11 -37 12 -14 15 -28 11 -47 -13 -53
-11 -58 22 -72 17 -8 32 -21 32 -28 0 -22 37 -15 83 17 25 17 53 30 63 29 15
0 14 -3 -6 -12 -77 -36 -175 -123 -186 -165 -6 -22 -9 -23 -85 -17 -91 6 -113
13 -101 29 5 6 13 29 17 51 4 22 19 61 33 87 25 45 26 48 9 65 -14 14 -17 15
-17 2 0 -8 -9 -22 -20 -32 -12 -10 -18 -22 -15 -27 3 -6 1 -10 -4 -10 -19 0
-51 -39 -51 -61 0 -17 -4 -19 -22 -13 -13 4 -26 12 -30 18 -5 7 -8 5 -8 -5 0
-15 -6 -16 -42 -8 -23 6 -47 8 -55 5 -16 -7 -17 16 -1 32 9 9 5 12 -17 13
l-30 0 25 10 c20 8 22 12 10 19 -13 8 -13 10 1 10 12 0 15 7 11 26 -3 18 -10
24 -22 21 -10 -2 -24 0 -31 5 -9 6 2 8 33 6 26 -1 50 1 54 5 4 4 -1 7 -12 8
-10 0 -13 3 -7 6 7 2 13 14 13 24 0 11 -4 17 -10 14 -5 -3 -10 3 -10 15 0 12
4 18 10 15 6 -3 7 1 4 9 -3 9 -9 16 -13 16 -4 0 -13 11 -19 24 -8 19 -8 26 1
29 7 2 -9 4 -35 3 -25 -1 -44 2 -42 6 8 12 -50 10 -62 -2 -7 -7 -22 -6 -47 5
-20 8 -37 11 -37 6 0 -15 -32 -22 -47 -9 -11 9 -13 8 -11 -3 2 -8 -4 -13 -14
-11 -9 1 -19 -2 -23 -8 -3 -5 1 -10 9 -10 9 0 16 -4 16 -8 0 -4 -16 -8 -35 -8
-28 0 -34 4 -32 19 1 11 -4 22 -11 24 -8 3 -10 -1 -5 -13 4 -12 3 -15 -5 -10
-7 4 -17 4 -23 0 -8 -4 -7 -9 2 -15 7 -4 11 -10 8 -14 -3 -3 -17 3 -30 13 -24
19 -36 19 -76 0 -26 -13 -24 -14 -50 29 l-19 32 0 -35 c0 -21 5 -34 13 -34 7
0 13 -4 13 -9 0 -5 -11 -8 -25 -7 -18 1 -23 5 -19 18 6 21 -15 35 -28 17 -7
-10 -8 -8 -5 9 3 12 1 22 -3 22 -5 0 -11 -10 -13 -22 -4 -20 -4 -19 -6 5 0 15
3 27 8 27 5 0 12 10 14 23 l4 22 2 -23 c0 -13 6 -20 11 -17 6 4 7 11 3 18 -3
6 -7 30 -8 54 -2 35 0 41 11 32 11 -9 16 -6 23 13 7 19 25 29 88 47 43 13 87
24 98 24 10 1 27 10 37 20 10 9 26 17 36 17 9 0 26 7 36 15 11 8 27 15 35 15
8 0 33 9 55 19 99 46 111 50 271 82 33 7 65 16 72 22 7 5 17 6 23 2 6 -4 21 0
33 8 12 7 33 17 47 20 50 11 164 57 170 68 6 8 9 7 12 -2 4 -10 12 -7 32 13
19 18 23 28 15 34 -28 17 -261 -1 -324 -26 -61 -23 -186 -53 -206 -49 -8 2
-34 -1 -59 -6 -25 -4 -92 -9 -150 -10 -58 -1 -117 -6 -132 -10 -20 -5 -28 -3
-28 5 0 7 -8 10 -20 7 -11 -3 -20 0 -20 5 0 6 -8 17 -17 25 -16 13 -16 13 5 3
30 -15 40 -5 13 12 -12 7 -21 21 -21 31 0 14 -6 16 -27 12 -16 -3 -22 -2 -15
1 21 10 13 33 -14 40 -15 4 -23 12 -20 20 3 7 1 16 -5 19 -5 4 -7 11 -4 16 4
5 2 9 -4 9 -10 0 -23 32 -26 63 -1 11 3 16 12 13 8 -3 12 -2 9 2 -6 10 15 37
37 45 9 3 16 10 15 15 -3 9 58 71 70 71 3 0 8 4 10 10 2 6 -3 11 -11 11 -8 0
-20 13 -25 30 -12 32 -19 35 -124 49 -38 5 -82 17 -99 25 -18 9 -38 16 -46 16
-7 0 -13 11 -13 25 0 14 -6 25 -12 25 -10 0 -9 3 1 9 9 6 10 11 2 15 -6 4 -9
12 -6 17 4 5 -6 14 -20 21 -16 7 -24 17 -20 26 3 8 0 21 -6 28 -8 10 -8 14 0
14 6 0 11 9 11 19 0 19 65 92 106 119 51 34 141 70 264 105 211 61 255 80 244
107 -9 20 -9 38 0 80 6 33 6 34 -9 16 -8 -11 -15 -15 -15 -9 0 22 -34 24 -62
3 -15 -11 -33 -20 -39 -20 -7 0 -23 -10 -36 -22 -20 -18 -23 -19 -23 -4 0 15
-3 15 -28 2 -39 -20 -60 -7 -44 29 7 14 12 39 12 55 0 24 -4 30 -21 30 -11 0
-18 4 -14 9 8 14 -7 20 -25 10z m30 -119 c0 -5 -5 -10 -11 -10 -5 0 -7 5 -4
10 3 6 8 10 11 10 2 0 4 -4 4 -10z m250 0 c0 -5 -5 -10 -11 -10 -5 0 -7 5 -4
10 3 6 8 10 11 10 2 0 4 -4 4 -10z m-400 -1480 c0 -5 -7 -10 -15 -10 -8 0 -15
5 -15 10 0 6 7 10 15 10 8 0 15 -4 15 -10z m-49 -111 l-11 -34 5 34 c3 18 6
48 7 65 l1 31 4 -31 c2 -18 -1 -47 -6 -65z m26 59 c-3 -7 -5 -2 -5 12 0 14 2
19 5 13 2 -7 2 -19 0 -25z m1428 -21 c11 -43 10 -47 -6 -47 -22 0 -32 15 -35
54 -5 65 24 60 41 -7z m2152 -9 c-3 -7 -5 -2 -5 12 0 14 2 19 5 13 2 -7 2 -19
0 -25z m-3396 -81 c-10 -9 -11 -8 -5 6 3 10 9 15 12 12 3 -3 0 -11 -7 -18z
m2839 19 c0 -19 -16 -36 -34 -35 -11 0 -16 3 -9 5 7 3 9 12 6 20 -3 9 2 14 16
14 12 0 21 -2 21 -4z m-2743 -32 c-3 -3 -12 -4 -19 -1 -8 3 -5 6 6 6 11 1 17
-2 13 -5z m370 0 c-3 -3 -12 -4 -19 -1 -8 3 -5 6 6 6 11 1 17 -2 13 -5z m1060
0 c-3 -3 -12 -4 -19 -1 -8 3 -5 6 6 6 11 1 17 -2 13 -5z m-1100 -66 c-2 -13
-4 -3 -4 22 0 25 2 35 4 23 2 -13 2 -33 0 -45z m33 25 c0 -19 -3 -24 -10 -17
-6 6 -8 18 -4 27 9 24 14 21 14 -10z m2760 8 c0 -5 -7 -11 -15 -15 -15 -5 -20
5 -8 17 9 10 23 9 23 -2z m-2973 -33 c-3 -8 -6 -5 -6 6 -1 11 2 17 5 13 3 -3
4 -12 1 -19z m163 7 c0 -8 -7 -15 -15 -15 -26 0 -18 20 13 29 1 1 2 -6 2 -14z
m1078 -50 c-3 -3 -13 -2 -22 1 -14 5 -15 9 -4 15 13 8 36 -6 26 -16z m692 15
c0 -5 -5 -10 -11 -10 -5 0 -7 5 -4 10 3 6 8 10 11 10 2 0 4 -4 4 -10z m-900
-15 c0 -10 10 -15 29 -15 36 0 80 -16 103 -37 13 -12 15 -20 7 -34 -12 -22
-34 -26 -25 -4 6 16 -3 19 -28 9 -9 -3 -16 -12 -16 -20 0 -8 -9 -14 -21 -14
-14 0 -19 5 -16 14 3 8 -1 17 -9 20 -11 4 -13 13 -9 27 6 19 4 21 -15 16 -13
-3 -28 0 -36 8 -18 18 -18 25 1 25 8 0 15 5 15 10 0 6 5 10 10 10 6 0 10 -7
10 -15z m-65 -15 c-3 -5 -12 -10 -18 -10 -7 0 -6 4 3 10 19 12 23 12 15 0z
m260 0 c3 -5 -1 -10 -9 -10 -9 0 -16 5 -16 10 0 6 4 10 9 10 6 0 13 -4 16 -10z
m-305 -4 c0 -2 -15 -6 -34 -8 -19 -2 -32 0 -30 4 5 8 64 12 64 4z m507 -102
c-3 -3 -12 -4 -19 -1 -8 3 -5 6 6 6 11 1 17 -2 13 -5z m-1062 -88 c16 7 29
-13 33 -51 5 -55 8 -70 20 -98 16 -39 15 -52 -2 -38 -11 10 -17 8 -25 -6 -6
-10 -11 -12 -11 -5 0 15 -23 16 -50 2 -11 -5 -29 -14 -40 -20 -13 -6 -21 -6
-25 1 -5 7 -12 6 -21 -2 -12 -10 -16 -8 -21 9 -6 26 -37 35 -78 24 -22 -6 -37
-4 -54 7 -17 11 -26 12 -28 4 -5 -13 -73 5 -73 18 0 11 46 23 59 15 5 -3 18 5
29 19 11 14 28 25 37 25 10 0 24 8 31 18 8 10 13 12 14 5 0 -7 5 -13 10 -13 6
0 9 6 8 12 -2 7 8 14 22 16 14 2 29 8 35 13 5 5 19 9 31 9 12 0 27 7 34 15 7
8 16 12 21 9 5 -3 9 -2 8 3 -3 19 2 26 12 16 6 -6 17 -9 24 -7z m2168 -16 c15
0 27 -5 27 -11 0 -5 -4 -7 -10 -4 -5 3 -10 1 -10 -4 0 -6 5 -11 10 -11 6 0 10
-4 10 -10 0 -5 -7 -10 -15 -10 -8 0 -15 -6 -15 -13 0 -19 -31 -15 -58 8 -35
31 -27 71 13 61 11 -3 32 -6 48 -6z m-1953 -40 c0 -5 -12 -10 -27 -9 l-28 1
25 8 c14 4 26 8 28 9 1 1 2 -3 2 -9z m-80 -63 c25 -19 69 -57 98 -85 29 -28
61 -54 71 -57 10 -3 23 -15 30 -28 6 -12 24 -28 39 -35 54 -26 199 -81 272
-102 41 -13 90 -34 108 -47 38 -28 44 -58 10 -48 -31 9 -129 45 -149 55 -9 5
-36 14 -59 20 -24 6 -76 27 -116 46 -40 19 -76 34 -79 34 -17 0 -148 85 -192
124 -53 48 -103 130 -103 168 1 21 2 21 13 7 7 -9 33 -33 57 -52z m2639 49
c13 -3 31 -12 41 -21 9 -8 21 -15 27 -15 5 0 24 -18 42 -40 28 -35 30 -42 19
-60 -16 -26 -49 -21 -133 21 -34 17 -74 31 -90 33 -35 4 -45 34 -24 74 12 21
18 23 54 19 22 -3 51 -8 64 -11z m-1729 -76 c0 -11 -7 -20 -15 -20 -18 0 -19
12 -3 28 16 16 18 15 18 -8z m-1430 -5 c0 -16 -30 -35 -55 -35 -9 0 -15 6 -12
13 2 6 16 11 30 9 20 -2 25 1 21 13 -3 8 -1 15 5 15 6 0 11 -7 11 -15z m1220
-15 c0 -5 -7 -10 -16 -10 -8 0 -12 5 -9 10 3 6 10 10 16 10 5 0 9 -4 9 -10z
m-1205 -29 c-3 -6 -11 -11 -16 -11 -5 0 -4 6 3 14 14 16 24 13 13 -3z m1623
-6 c0 -22 -5 -25 -39 -25 -21 0 -41 5 -44 10 -3 6 -1 10 5 10 6 0 18 7 26 15
25 24 52 19 52 -10z m-1421 -21 c-3 -3 -12 -4 -19 -1 -8 3 -5 6 6 6 11 1 17
-2 13 -5z m1328 -24 c3 -5 1 -10 -4 -10 -6 0 -11 5 -11 10 0 6 2 10 4 10 3 0
8 -4 11 -10z m-1151 -26 c25 -10 19 -33 -11 -47 -34 -14 -58 -36 -50 -44 4 -3
17 2 31 10 23 16 25 16 23 -3 -2 -24 -55 -37 -85 -21 -11 6 -41 9 -66 6 -52
-5 -58 0 -18 17 l27 11 -40 13 -40 14 40 -6 c22 -3 43 -11 47 -17 6 -9 8 -8 8
1 0 9 7 11 23 7 12 -3 18 -3 12 2 -5 4 -11 18 -13 30 -2 16 3 23 20 26 37 7
75 7 92 1z m716 -13 c0 -12 -20 -25 -27 -18 -7 7 6 27 18 27 5 0 9 -4 9 -9z
m1090 -15 c0 -7 -6 -21 -14 -31 -12 -16 -16 -17 -30 -6 -15 13 -21 42 -11 53
10 9 55 -4 55 -16z m4400 -6 c0 -11 -4 -20 -10 -20 -5 0 -10 9 -10 20 0 11 5
20 10 20 6 0 10 -9 10 -20z m-6336 -11 c-3 -5 -10 -7 -15 -3 -5 3 -7 10 -3 15
3 5 10 7 15 3 5 -3 7 -10 3 -15z m2198 -7 c-7 -5 -10 -16 -6 -28 6 -15 4 -17
-6 -7 -15 14 -7 43 12 43 11 0 11 -2 0 -8z m-2272 -22 c0 -5 -4 -10 -10 -10
-5 0 -10 5 -10 10 0 6 5 10 10 10 6 0 10 -4 10 -10z m110 -50 c0 -5 -5 -10
-11 -10 -5 0 -7 5 -4 10 3 6 8 10 11 10 2 0 4 -4 4 -10z m100 -9 c0 -5 -9 -11
-20 -14 -22 -6 -28 8 -7 16 19 8 27 8 27 -2z m-395 -11 c4 -6 -6 -10 -22 -10
-22 0 -25 2 -13 10 19 12 27 12 35 0z m329 1 c3 -5 -6 -11 -19 -14 -29 -5 -45
9 -18 16 29 8 32 7 37 -2z m1766 -11 c0 -5 -5 -10 -11 -10 -5 0 -7 5 -4 10 3
6 8 10 11 10 2 0 4 -4 4 -10z m-1912 -44 c-10 -7 -16 -16 -13 -20 3 -3 0 -2
-6 3 -15 12 -3 31 19 31 16 -1 16 -2 0 -14z m205 7 c-7 -2 -19 -2 -25 0 -7 3
-2 5 12 5 14 0 19 -2 13 -5z m-36 -65 c-3 -8 -6 -5 -6 6 -1 11 2 17 5 13 3 -3
4 -12 1 -19z m2812 -37 c29 -29 18 -58 -20 -53 -38 6 -55 35 -33 56 20 21 30
20 53 -3z m-549 -5 c28 -35 -11 -93 -47 -70 -27 17 -28 50 -1 68 28 20 32 20
48 2z m3935 4 c-3 -5 -18 -10 -33 -9 l-27 1 25 8 c35 11 42 11 35 0z m-4943
-19 c2 -5 35 -11 73 -15 39 -3 77 -7 85 -9 41 -10 117 -18 230 -27 69 -5 193
-16 275 -25 190 -19 299 -20 289 -2 -5 8 -2 8 9 -2 15 -12 217 -35 297 -33 14
0 69 -4 124 -10 69 -6 102 -6 109 1 13 13 77 15 77 2 0 -16 -29 -33 -45 -27
-9 3 -14 2 -11 -3 3 -5 -56 -12 -132 -16 -75 -4 -142 -11 -149 -17 -28 -23
-358 -3 -390 24 -8 6 -62 15 -120 20 -106 8 -351 40 -373 48 -3 1 -18 3 -35 5
-29 2 -169 24 -284 45 -30 5 -59 14 -65 20 -5 5 -18 10 -29 10 -10 0 -15 5
-12 10 8 12 72 13 77 1z m-1505 -33 c-3 -8 -6 -5 -6 6 -1 11 2 17 5 13 3 -3 4
-12 1 -19z m283 -18 c0 -5 -5 -10 -11 -10 -5 0 -7 5 -4 10 3 6 8 10 11 10 2 0
4 -4 4 -10z m6210 -25 c0 -17 -54 -75 -70 -75 -26 0 -21 32 11 60 35 33 59 38
59 15z m209 -145 c4 0 12 5 19 12 9 9 17 9 34 1 13 -7 36 -15 52 -20 29 -9 50
-42 38 -59 -12 -16 -72 -45 -72 -35 0 6 -7 8 -15 5 -8 -4 -15 -2 -15 4 0 6 -9
8 -19 5 -29 -7 -50 33 -43 82 3 22 7 32 10 23 2 -10 7 -18 11 -18z m-74 -530
c3 -6 -1 -7 -9 -4 -18 7 -21 14 -7 14 6 0 13 -4 16 -10z m-110 -10 c3 -5 -1
-10 -9 -10 -9 0 -16 5 -16 10 0 6 4 10 9 10 6 0 13 -4 16 -10z m-458 -26 c-3
-3 -12 -4 -19 -1 -8 3 -5 6 6 6 11 1 17 -2 13 -5z m928 -54 c3 -5 1 -10 -4
-10 -6 0 -11 5 -11 10 0 6 2 10 4 10 3 0 8 -4 11 -10z m78 -9 c5 -1 1 -8 -7
-17 -14 -14 -18 -14 -31 0 -20 20 -19 23 8 20 12 -1 26 -3 30 -3z m-1243 -157
c0 -2 -7 -4 -15 -4 -8 0 -15 4 -15 10 0 5 7 7 15 4 8 -4 15 -8 15 -10z m-62
-53 c11 -7 11 -9 -1 -14 -16 -6 -27 0 -27 15 0 10 11 10 28 -1z m182 -11 c0
-5 -7 -10 -16 -10 -8 0 -12 5 -9 10 3 6 10 10 16 10 5 0 9 -4 9 -10z m-210
-34 c0 -11 -19 -15 -25 -6 -3 5 1 10 9 10 9 0 16 -2 16 -4z m-69 -54 c-6 -11
-7 -23 -3 -28 4 -5 -1 -3 -10 4 -16 13 -16 14 0 31 21 22 27 19 13 -7z m-41
-6 c0 -3 -4 -8 -10 -11 -5 -3 -10 -1 -10 4 0 6 5 11 10 11 6 0 10 -2 10 -4z
m269 -5 c9 -6 10 -11 2 -15 -6 -4 -18 0 -27 8 -12 12 -12 16 -2 16 7 0 19 -4
27 -9z m-64 -81 c-3 -5 2 -10 11 -10 10 0 15 -3 11 -6 -3 -3 -15 -3 -28 1 -17
6 -19 9 -8 16 18 11 22 11 14 -1z m-78 -222 c-3 -7 -5 -2 -5 12 0 14 2 19 5
13 2 -7 2 -19 0 -25z m30 -34 c-3 -3 -12 -4 -19 -1 -8 3 -5 6 6 6 11 1 17 -2
13 -5z m46 -54 c3 -11 1 -18 -4 -14 -5 3 -9 12 -9 20 0 20 7 17 13 -6z m114
-8 c-10 -10 -17 -25 -18 -33 0 -8 -5 -4 -12 9 -11 25 1 42 32 42 11 0 11 -4
-2 -18z m108 8 c-3 -5 -14 -10 -23 -9 -14 0 -13 2 3 9 27 11 27 11 20 0z m31
-17 c-10 -10 -19 5 -10 18 6 11 8 11 12 0 2 -7 1 -15 -2 -18z m-379 11 c-3 -3
-12 -4 -19 -1 -8 3 -5 6 6 6 11 1 17 -2 13 -5z m363 -34 c0 -5 -4 -10 -10 -10
-5 0 -10 5 -10 10 0 6 5 10 10 10 6 0 10 -4 10 -10z m-90 -21 c0 -5 -4 -9 -10
-9 -5 0 -10 7 -10 16 0 8 5 12 10 9 6 -3 10 -10 10 -16z m-420 1 c0 -5 -5 -10
-11 -10 -5 0 -7 5 -4 10 3 6 8 10 11 10 2 0 4 -4 4 -10z m452 -5 c0 -5 -5 -11
-11 -13 -6 -2 -11 4 -11 13 0 9 5 15 11 13 6 -2 11 -8 11 -13z m-102 -10 c0
-8 -7 -15 -15 -15 -26 0 -18 20 13 29 1 1 2 -6 2 -14z m-235 -14 c-3 -6 -11
-11 -16 -11 -5 0 -4 6 3 14 14 16 24 13 13 -3z m262 -3 c-3 -8 -6 -5 -6 6 -1
11 2 17 5 13 3 -3 4 -12 1 -19z m183 -67 c0 -6 -4 -13 -10 -16 -5 -3 -10 1
-10 9 0 9 5 16 10 16 6 0 10 -4 10 -9z m-115 -141 c3 -5 1 -10 -4 -10 -6 0
-11 5 -11 10 0 6 2 10 4 10 3 0 8 -4 11 -10z"/>
<path d="M805 2380 c3 -5 10 -10 16 -10 5 0 9 5 9 10 0 6 -7 10 -16 10 -8 0
-12 -4 -9 -10z"/>
<path d="M675 2330 c-3 -5 1 -10 10 -10 9 0 13 5 10 10 -3 6 -8 10 -10 10 -2
0 -7 -4 -10 -10z"/>
<path d="M899 2317 c7 -7 18 -7 33 0 20 9 20 10 -10 10 -22 0 -29 -4 -23 -10z"/>
<path d="M945 2190 c-3 -5 1 -10 9 -10 8 0 18 5 21 10 3 6 -1 10 -9 10 -8 0
-18 -4 -21 -10z"/>
<path d="M8200 4549 c0 -5 5 -7 10 -4 6 3 10 8 10 11 0 2 -4 4 -10 4 -5 0 -10
-5 -10 -11z"/>
<path d="M2605 4480 c3 -5 11 -10 16 -10 6 0 7 5 4 10 -3 6 -11 10 -16 10 -6
0 -7 -4 -4 -10z"/>
<path d="M2640 4471 c0 -10 30 -24 37 -17 3 3 2 9 -2 15 -8 13 -35 15 -35 2z"/>
<path d="M2750 4389 c0 -5 5 -7 10 -4 6 3 10 8 10 11 0 2 -4 4 -10 4 -5 0 -10
-5 -10 -11z"/>
<path d="M8116 4159 c-10 -6 -27 -20 -38 -31 -20 -20 -20 -20 4 -46 34 -39 61
-81 82 -129 13 -29 25 -43 38 -43 39 0 97 -50 98 -85 0 -11 9 -26 19 -32 27
-17 41 3 47 69 3 46 -1 63 -29 118 -19 36 -37 77 -40 91 -9 37 -92 99 -131 99
-17 0 -39 -5 -50 -11z"/>
<path d="M3258 4143 c7 -3 16 -2 19 1 4 3 -2 6 -13 5 -11 0 -14 -3 -6 -6z"/>
<path d="M3605 3791 c-48 -12 -83 -40 -90 -73 -11 -50 -8 -101 7 -112 8 -6 17
-19 21 -28 3 -10 16 -18 27 -18 12 0 24 -9 28 -21 7 -17 10 -18 18 -7 25 32
23 44 -7 40 -21 -3 -29 0 -29 11 0 9 -9 19 -20 22 -15 5 -20 15 -20 40 0 25 5
35 20 40 11 3 20 10 20 16 0 5 17 12 39 15 52 8 66 18 56 40 -5 11 -9 23 -9
29 -1 13 -24 15 -61 6z"/>
<path d="M408 3763 c7 -3 16 -2 19 1 4 3 -2 6 -13 5 -11 0 -14 -3 -6 -6z"/>
<path d="M4156 3732 c-14 -14 70 -43 122 -42 32 0 77 -4 102 -9 25 -6 63 -10
85 -10 l40 0 -42 13 c-23 8 -74 16 -114 20 -39 3 -76 10 -83 14 -13 11 -103
22 -110 14z"/>
<path d="M3374 3675 c-4 -8 -17 -15 -31 -15 -13 0 -21 4 -18 10 4 6 -6 10 -23
10 -26 0 -30 -4 -36 -37 -5 -32 -2 -41 17 -55 21 -16 21 -17 2 -24 -11 -5 -28
-19 -39 -31 -17 -23 -19 -23 -37 -7 -23 20 -24 19 -32 -23 -5 -27 -3 -33 11
-33 14 0 15 -2 2 -10 -9 -5 -19 -5 -26 1 -9 7 -20 2 -38 -16 -14 -14 -26 -29
-27 -33 -11 -133 -33 -172 -90 -164 -29 4 -39 25 -18 37 13 8 -18 45 -38 45
-7 0 -13 5 -13 10 0 21 -2 25 -16 33 -18 10 -51 -20 -56 -53 -2 -18 -10 -26
-28 -28 -14 -2 -38 -14 -55 -26 -16 -13 -40 -26 -52 -30 -11 -4 -27 -13 -33
-21 -19 -23 -42 -19 -38 7 2 14 20 31 50 47 63 35 79 51 51 51 -30 0 -40 18
-46 80 -10 103 -72 181 -69 88 1 -39 -29 -111 -72 -173 -16 -22 -17 -31 -8
-46 25 -39 6 -40 -32 -2 -17 16 -25 34 -23 45 4 12 0 18 -12 18 -10 0 -26 9
-36 20 -19 20 -41 28 -30 10 9 -14 -2 -12 -30 6 -23 15 -26 14 -70 -22 -42
-36 -50 -47 -46 -68 3 -14 -49 -55 -63 -50 -19 7 -45 -32 -38 -58 4 -18 10
-19 71 -13 36 4 89 15 118 25 58 20 73 14 73 -32 0 -29 6 -32 117 -56 35 -8
45 -7 61 8 13 13 34 18 63 17 37 -1 50 4 78 31 18 18 41 32 51 32 10 0 22 9
25 20 5 16 10 18 26 10 10 -6 19 -21 19 -35 0 -40 56 -41 62 -1 3 19 8 21 54
18 46 -3 54 -1 73 24 l22 28 -3 -54 c-3 -52 -5 -55 -30 -58 -16 -2 -28 -9 -28
-18 0 -8 -8 -14 -17 -14 -11 0 -14 -3 -7 -8 21 -14 26 -49 8 -56 -16 -6 -16
-8 -2 -22 13 -13 21 -13 56 -2 23 7 42 16 42 19 0 11 37 49 49 49 15 0 14 -23
-1 -38 -7 -7 -8 -12 -4 -12 5 0 4 -6 -3 -13 -8 -11 -4 -13 21 -9 21 3 33 0 40
-12 11 -20 64 -21 84 -1 9 8 24 15 35 15 10 0 19 5 19 10 0 6 12 10 26 10 19
0 25 4 20 15 -6 17 5 20 20 5 7 -7 28 -7 63 0 30 5 75 10 101 10 26 0 67 9 91
20 65 29 131 26 209 -11 90 -42 188 -107 195 -130 12 -37 -40 -157 -79 -183
-34 -22 -36 -61 -3 -52 12 3 28 6 35 6 6 0 12 11 12 25 0 14 7 28 15 31 12 5
13 9 4 21 -10 11 -8 15 9 20 12 3 25 16 28 29 7 28 30 32 39 7 6 -18 105 -97
162 -130 18 -10 33 -21 33 -25 0 -14 -45 -8 -82 11 -25 12 -39 15 -42 7 -2 -6
-5 -4 -5 5 -1 9 -8 20 -17 23 -8 3 -13 2 -10 -3 6 -10 -27 -23 -63 -25 -25 -1
-32 -10 -51 -69 -25 -80 7 -115 88 -96 20 5 57 9 82 9 39 1 126 24 155 42 6 3
32 2 58 -2 26 -4 50 -3 53 2 3 4 18 8 33 8 16 0 45 7 64 15 20 8 46 15 57 15
43 0 108 -59 177 -160 79 -115 67 -110 268 -110 226 -1 246 0 239 11 -9 15 5
61 16 54 6 -3 7 1 4 9 -3 9 -10 16 -16 16 -5 0 -20 12 -33 26 -21 23 -26 24
-31 10 -4 -9 -4 -30 0 -46 4 -24 2 -30 -12 -30 -10 0 -24 -6 -31 -12 -10 -11
-11 -10 -6 5 4 10 2 17 -4 17 -6 0 -13 -11 -17 -25 -3 -14 -10 -25 -16 -25 -5
0 -7 4 -3 9 3 6 -2 14 -12 19 -9 6 -18 23 -19 39 -1 15 -3 31 -3 35 -2 17 -32
-6 -37 -28 -5 -20 -9 -22 -20 -13 -12 10 -12 15 2 31 21 22 71 48 95 48 10 0
21 5 25 11 3 6 19 9 34 6 24 -5 27 -3 22 19 -2 13 0 24 6 24 6 0 12 -10 14
-22 3 -22 28 -39 28 -19 0 19 -34 51 -53 51 -10 0 -16 4 -13 9 4 5 0 12 -6 14
-8 3 -6 6 5 6 9 1 17 -4 17 -9 0 -6 3 -9 8 -8 4 1 24 -2 45 -7 25 -5 34 -10
27 -15 -7 -5 -10 -15 -7 -25 4 -9 3 -14 -3 -10 -6 3 -10 -1 -10 -10 0 -11 5
-15 15 -11 8 3 15 1 15 -4 0 -6 5 -10 11 -10 8 0 8 4 0 14 -10 12 -8 17 9 26
21 11 21 13 5 30 -17 19 -16 19 16 8 19 -6 46 -11 61 -11 23 0 26 -3 18 -17
-5 -10 -7 -20 -4 -23 3 -3 -3 -3 -15 0 -26 7 -27 -5 -3 -23 15 -12 15 -15 2
-24 -8 -6 -34 -9 -58 -7 -42 5 -42 4 -26 -14 9 -11 23 -19 31 -19 7 0 13 -9
13 -20 0 -17 -3 -19 -19 -10 -11 5 -26 7 -35 4 -12 -5 -13 -9 -3 -25 6 -10 19
-19 28 -19 18 0 61 -34 59 -46 -1 -5 3 -10 9 -12 6 -2 11 3 11 11 0 20 29 49
41 41 9 -5 2 44 -7 55 -2 2 1 10 7 17 7 8 7 14 -1 19 -5 3 -10 -1 -10 -9 0
-17 -36 -22 -58 -7 -10 6 -4 10 18 14 17 4 29 11 25 16 -6 11 11 24 37 28 23
4 32 -15 17 -33 -8 -10 -9 -18 -2 -22 5 -4 15 -17 22 -29 6 -13 20 -23 31 -23
18 0 19 5 13 63 -4 52 -2 71 17 112 12 28 27 53 32 56 6 4 0 14 -13 22 l-22
16 24 20 c13 11 40 23 59 26 19 3 69 13 110 22 43 9 120 17 183 17 92 0 111
-3 135 -20 15 -12 37 -23 49 -26 20 -5 22 -3 17 17 -8 31 8 38 42 20 16 -8 22
-15 14 -15 -11 -1 -10 -3 4 -11 14 -9 20 -8 27 2 5 8 3 17 -4 21 -8 5 -7 8 5
8 25 0 41 -35 28 -60 -6 -11 -7 -20 -3 -20 4 0 2 -5 -5 -12 -9 -9 -15 -8 -27
8 -8 10 -15 15 -15 9 0 -5 -21 -10 -48 -11 -28 -1 -39 2 -27 6 17 6 17 7 -7
12 -24 5 -26 3 -17 -19 5 -13 9 -38 9 -55 0 -30 0 -30 50 -26 37 2 50 0 50
-11 0 -7 -6 -11 -13 -8 -6 2 -18 -2 -25 -9 -10 -12 -10 -14 3 -14 9 0 13 -5
10 -10 -4 -6 -10 -8 -15 -5 -4 3 -6 -4 -3 -15 6 -24 -12 -27 -21 -4 -4 9 -9
14 -12 11 -3 -3 1 -16 10 -29 9 -12 16 -26 16 -30 0 -13 -65 -9 -78 4 -15 15
-16 58 -2 58 6 0 10 7 10 15 0 14 -25 21 -60 16 -8 -1 -22 -3 -30 -3 -27 -2
-75 -37 -75 -55 0 -26 -49 -29 -80 -5 l-25 20 -31 -29 c-36 -33 -92 -47 -114
-29 -14 12 -14 15 0 30 15 16 14 17 -15 14 -18 -2 -41 1 -52 7 -33 18 -42 -2
-31 -69 7 -45 6 -61 -4 -71 -17 -15 -17 -35 0 -25 9 6 8 3 -1 -9 -26 -32 -172
-45 -255 -22 -35 9 -57 -8 -57 -45 0 -15 -7 -43 -15 -63 -8 -19 -11 -38 -7
-42 4 -3 -2 -13 -12 -21 -11 -8 -14 -14 -8 -14 7 0 12 -5 12 -10 0 -6 -6 -9
-12 -8 -7 2 -12 -3 -10 -9 1 -7 -5 -13 -13 -13 -8 0 -15 -7 -15 -16 0 -14 -8
-16 -54 -10 -38 4 -57 2 -64 -7 -16 -19 -62 -20 -62 -1 0 10 -6 14 -15 10 -9
-3 -15 0 -15 9 0 23 -51 31 -65 11 -15 -20 -108 -37 -146 -26 -15 5 -29 6 -32
4 -2 -3 -10 2 -17 11 -7 8 -21 15 -32 15 -10 0 -16 5 -13 10 4 6 -12 10 -42
10 -35 0 -44 3 -33 10 18 12 -68 9 -87 -3 -9 -5 -13 -3 -13 7 0 21 -61 26 -68
5 -6 -17 -32 19 -35 50 -5 42 -24 61 -61 61 -31 0 -56 15 -56 32 0 5 11 19 25
32 16 15 25 35 27 62 1 21 6 42 11 45 16 11 -3 29 -30 29 -17 0 -27 7 -30 20
-5 19 -11 20 -52 14 -57 -8 -58 -9 -37 -33 13 -15 16 -28 10 -57 -7 -42 -22
-75 -36 -85 -5 -3 -1 -23 8 -45 9 -21 13 -36 8 -32 -12 12 -33 -11 -54 -60
-24 -54 -24 -52 -4 -52 9 0 18 -9 21 -20 7 -25 25 -21 38 8 5 11 21 27 35 34
14 7 33 21 44 31 10 11 27 17 37 14 11 -3 19 -1 19 4 0 23 20 5 30 -28 19 -58
37 -81 82 -104 39 -20 44 -20 72 -5 62 32 84 36 101 20 17 -18 20 -40 5 -49
-5 -3 -10 -22 -10 -40 0 -26 -9 -43 -35 -70 -46 -46 -35 -50 92 -35 54 6 114
11 133 10 19 -1 83 2 142 5 84 6 112 11 129 26 23 20 54 25 63 11 3 -5 33 -10
68 -11 35 -1 65 -6 66 -12 6 -14 22 -11 22 6 0 7 7 18 16 23 15 8 22 71 13
115 -3 12 7 23 36 36 38 17 42 17 79 0 38 -17 38 -17 17 -30 -11 -8 -21 -24
-21 -36 0 -25 -16 -39 -23 -21 -3 7 -6 3 -6 -9 -1 -12 -3 -28 -7 -36 -4 -11 4
-14 36 -14 40 0 42 1 38 28 -5 31 6 39 50 39 19 0 30 -7 37 -22 12 -27 25 -27
152 -1 45 9 80 20 77 25 -3 4 -2 17 1 29 10 31 49 21 53 -13 4 -33 14 -34 92
-14 30 8 101 21 157 30 56 8 111 20 122 25 11 6 30 9 43 8 12 -2 36 0 53 4 16
4 55 14 85 21 30 8 64 19 75 25 19 11 17 13 -17 28 -35 14 -51 35 -28 35 6 0
10 9 10 20 0 23 1 24 34 8 21 -9 29 -8 44 5 10 10 27 17 36 17 12 0 16 5 12
15 -7 20 21 33 62 30 21 -2 32 2 32 10 0 15 62 26 71 13 4 -6 8 -5 11 2 6 20
40 22 36 2 -2 -10 -15 -18 -31 -20 -15 -2 -27 -7 -27 -12 0 -5 -7 -15 -15 -24
-13 -13 -13 -19 -3 -36 7 -11 20 -20 28 -20 18 1 118 35 127 44 3 3 16 6 28 6
12 0 30 7 41 15 18 14 17 14 -18 12 -20 -1 -34 -5 -31 -9 2 -5 1 -8 -3 -8 -10
0 -31 29 -50 68 -16 31 -15 34 2 53 12 13 14 19 5 17 -7 -2 -16 3 -18 10 -3 6
2 12 11 12 9 0 16 7 16 15 0 8 5 15 10 15 6 0 10 8 10 19 0 10 7 24 15 31 8 7
15 19 15 27 0 8 18 22 40 30 35 14 39 19 33 42 -18 76 -43 98 -89 81 -21 -8
-24 -14 -16 -22 16 -16 15 -28 -3 -28 -8 0 -15 4 -15 9 0 16 -44 17 -56 2 -16
-21 -34 -4 -34 32 0 31 -34 75 -52 69 -5 -1 -8 3 -8 9 0 6 -19 29 -41 50 -41
39 -56 48 -44 29 3 -5 3 -15 -1 -22 -5 -8 -10 -6 -15 8 -7 17 -8 17 -8 -3 -1
-13 3 -23 8 -23 5 0 7 -8 4 -19 -3 -10 0 -22 6 -25 16 -10 14 -59 -4 -82 -19
-25 -19 -49 0 -67 13 -14 13 -19 0 -51 -9 -21 -11 -37 -5 -41 14 -9 0 -35 -15
-28 -9 3 -17 -5 -21 -21 -3 -14 -10 -26 -16 -26 -5 0 -5 6 0 16 5 9 7 25 5 35
-4 13 0 19 11 19 17 0 20 17 10 44 -11 30 -31 17 -32 -21 -2 -37 -34 -77 -57
-69 -16 4 -18 69 -3 81 7 5 21 22 31 38 17 26 17 27 0 28 -47 3 -48 4 -45 32
2 18 -1 26 -7 22 -6 -3 -22 6 -37 22 -21 22 -27 25 -34 13 -7 -10 -10 -11 -10
-2 0 6 -11 12 -25 12 -16 0 -25 6 -25 15 0 9 -11 27 -25 41 -19 19 -24 31 -19
51 5 19 4 24 -6 18 -9 -6 -10 -2 -4 16 4 13 6 31 5 39 -1 8 -3 29 -4 47 -1 18
-8 38 -15 45 -6 6 -12 17 -12 23 0 5 -17 15 -37 22 -34 11 -40 10 -54 -8 -12
-17 -17 -18 -26 -7 -20 24 12 52 60 53 108 2 162 -90 134 -231 -8 -43 20 -58
113 -60 41 -1 92 -5 113 -9 20 -4 37 -5 37 -3 0 13 -33 68 -40 68 -5 0 -29 20
-53 45 -25 25 -52 45 -60 45 -9 0 -18 13 -22 30 -4 17 -15 35 -25 40 -10 5
-24 27 -31 47 -6 21 -20 49 -29 63 -10 14 -27 44 -38 66 -28 56 -50 76 -73 69
-11 -4 -19 -2 -19 5 0 6 -12 4 -31 -5 -17 -9 -33 -14 -36 -11 -7 7 -91 -41
-125 -72 -34 -31 -78 -23 -127 25 -20 19 -48 37 -63 40 -15 3 -25 9 -22 14 3
5 -4 9 -14 9 -11 0 -39 -21 -62 -46 -35 -38 -41 -51 -36 -75 6 -32 -9 -38 -46
-18 -28 15 -32 6 -8 -24 26 -32 25 -44 -1 -52 -15 -5 -25 -2 -31 9 -7 13 -18
16 -41 11 -22 -4 -28 -3 -18 3 14 10 6 36 -9 27 -4 -3 -10 2 -14 10 -7 20 -56
19 -84 -1 -28 -19 -68 -15 -65 7 5 26 -78 59 -150 59 -35 0 -68 -5 -74 -11 -7
-7 -22 -9 -40 -4 -15 4 -41 8 -58 9 -41 1 -46 36 -10 60 14 9 30 14 35 11 6
-3 10 3 10 15 0 11 9 30 20 42 25 27 26 80 3 100 -10 9 -33 19 -52 23 -19 4
-48 16 -65 26 -17 10 -38 22 -46 25 -8 3 -24 10 -36 16 -12 5 -32 8 -45 6 -19
-2 -24 3 -32 33 -10 41 -37 58 -103 65 -36 3 -42 0 -52 -21 -7 -14 -18 -25
-25 -25 -8 0 -22 -9 -31 -19 -20 -22 -146 -56 -191 -52 -16 1 -43 9 -59 17
-16 8 -39 14 -52 14 -23 0 -94 31 -156 69 -34 21 -62 62 -70 106 -2 11 -11 21
-20 23 -17 3 -68 -38 -68 -57 0 -16 -18 -14 -27 4 -8 13 -11 13 -30 0 -12 -8
-23 -25 -25 -38 -2 -14 -10 -22 -23 -22 -12 0 -20 -7 -20 -17 0 -32 -21 -42
-43 -20 -11 11 -23 18 -26 15 -11 -11 -6 -21 14 -26 22 -6 28 -47 8 -47 -7 -1
-1 -7 13 -15 21 -11 26 -20 22 -42 -3 -26 -3 -26 6 -6 10 23 31 24 70 4 26
-14 81 -10 81 5 0 7 -6 14 -12 17 -7 2 -1 4 15 4 23 0 27 -3 25 -25 -3 -27
-10 -25 129 -36 73 -5 103 -19 103 -47 0 -11 4 -17 10 -14 6 3 7 -1 4 -10 -5
-13 -15 -15 -44 -10 -36 6 -37 6 -32 -24 4 -30 51 -70 106 -91 16 -6 26 -20
30 -43 5 -29 10 -34 27 -30 16 5 20 2 17 -13 -2 -13 2 -18 13 -16 8 1 30 -11
49 -28 18 -16 37 -30 41 -30 4 0 9 -6 11 -14 6 -26 47 2 70 49 12 25 26 45 30
45 5 0 21 12 35 26 22 22 30 25 44 15 11 -6 37 -8 61 -5 26 3 63 -1 91 -10 27
-8 55 -12 63 -9 9 3 13 0 10 -8 -2 -8 -7 -29 -10 -46 -5 -31 -4 -33 24 -33 17
0 30 -4 30 -8 0 -4 12 -15 28 -24 73 -45 211 -181 212 -210 0 -9 5 -20 10 -23
6 -4 8 -11 4 -16 -3 -5 0 -17 7 -25 23 -27 0 -26 -36 3 -32 24 -36 32 -31 61
3 18 1 30 -4 27 -4 -3 -10 0 -12 5 -4 12 -50 24 -90 23 -27 0 -32 7 -29 35 1
7 -5 15 -14 18 -8 3 -15 13 -15 21 0 12 -3 13 -14 3 -12 -9 -16 -5 -22 25 -4
21 -15 40 -27 46 -26 14 -139 21 -132 8 4 -5 -1 -12 -9 -15 -8 -3 -18 -14 -21
-25 -4 -10 -13 -19 -21 -19 -8 0 -14 -4 -14 -10 0 -5 -7 -7 -15 -4 -9 4 -15 0
-15 -10 0 -9 5 -16 11 -16 5 0 7 -4 4 -10 -9 -14 -25 -12 -25 3 0 8 -9 22 -20
32 -11 10 -20 13 -20 8 0 -6 7 -13 15 -17 8 -3 15 -12 15 -20 0 -11 -7 -14
-27 -11 -16 3 -39 7 -53 9 -14 3 -25 5 -25 6 0 1 -8 3 -18 5 -15 3 -16 1 -6
-11 6 -8 18 -14 26 -14 8 0 12 -4 8 -9 -7 -12 -45 -10 -45 3 0 20 -34 34 -63
25 -23 -7 -28 -5 -23 7 4 12 2 12 -14 4 -14 -7 -21 -7 -27 2 -12 19 -60 41
-72 34 -6 -4 -14 -1 -17 8 -3 8 -12 12 -20 9 -8 -3 -14 0 -14 7 0 6 -4 9 -9 5
-5 -3 -11 5 -13 17 -2 18 -9 22 -28 20 -14 -1 -35 -7 -47 -13 -24 -13 -53 -6
-53 12 0 8 4 8 15 -1 12 -10 13 -7 5 20 -11 37 -3 63 16 56 17 -7 18 -1 2 23
-18 30 -50 9 -43 -27 l6 -27 -15 25 c-11 18 -15 20 -16 9 0 -9 -7 -19 -15 -23
-17 -6 -39 63 -32 101 2 13 0 23 -6 23 -5 0 -3 8 4 17 8 9 9 14 3 10 -10 -6
-24 12 -24 30 0 2 30 1 67 -3 59 -6 65 -5 60 10 -4 9 -2 16 3 16 17 0 11 36
-7 52 -10 9 -28 14 -40 12 -12 -2 -25 1 -28 6 -7 12 -26 13 -24 3 3 -19 -2
-27 -10 -15 -9 15 -33 6 -73 -27 -13 -10 -34 -12 -84 -6 -83 9 -94 13 -94 34
0 9 -21 28 -45 43 -49 30 -53 29 -29 -7 11 -16 12 -25 5 -25 -6 0 -14 6 -17
14 -3 8 -17 17 -31 21 -19 4 -23 9 -15 17 8 8 5 16 -11 28 -36 29 -116 63
-132 56 -9 -3 -15 0 -15 8 0 8 -10 20 -23 29 -28 18 -37 97 -11 97 8 0 13 4
10 9 -3 5 -15 7 -26 4 -16 -4 -21 1 -26 26 -7 33 -18 40 -28 16 -3 -8 -17 -15
-33 -15 l-28 1 23 19 c20 16 21 22 10 39 -15 25 -36 27 -44 6z m96 -116 c0
-10 -69 -16 -83 -7 -9 6 -9 8 2 8 8 0 11 3 8 7 -4 3 1 12 10 18 14 10 21 10
40 -4 12 -9 23 -19 23 -22z m1330 -87 c0 -11 -11 -24 -25 -30 -28 -13 -32 -3
-13 28 16 25 38 26 38 2z m-636 -27 c43 -18 47 -41 9 -48 -29 -5 -52 14 -53
46 0 21 -1 21 44 2z m-646 -37 c2 -20 -1 -26 -14 -24 -20 3 -32 26 -14 26 7 0
10 7 6 16 -4 10 -1 14 6 12 7 -3 14 -16 16 -30z m122 -46 c0 -8 -9 -10 -27 -7
-26 6 -27 5 -10 -8 20 -16 9 -31 -12 -17 -10 5 -12 18 -8 39 5 23 3 30 -5 25
-6 -4 -8 -3 -4 4 8 14 66 -17 66 -36z m600 14 c0 -17 -37 -17 -51 0 -9 11 -8
14 5 14 9 0 16 5 16 11 0 8 5 8 15 -1 8 -7 15 -18 15 -24z m590 24 c0 -13 -28
-25 -38 -16 -3 4 0 11 8 16 20 13 30 12 30 0z m-1270 -20 c0 -5 -2 -10 -4 -10
-3 0 -8 5 -11 10 -3 6 -1 10 4 10 6 0 11 -4 11 -10z m130 -24 c0 -2 -7 -7 -16
-10 -8 -3 -12 -2 -9 4 6 10 25 14 25 6z m944 -33 c17 -3 41 -13 53 -20 12 -8
27 -13 35 -12 25 3 37 -1 54 -18 52 -52 86 -72 105 -62 10 5 19 8 20 7 1 -2 3
-21 5 -43 l3 -40 -24 32 c-17 22 -31 30 -44 26 -14 -3 -32 7 -60 36 -22 23
-44 41 -50 41 -21 0 -19 -33 4 -70 30 -47 32 -65 8 -55 -10 4 -33 9 -50 12
-19 3 -33 12 -33 19 0 8 -5 14 -11 14 -5 0 -7 -5 -4 -10 9 -15 -24 -25 -38
-11 -6 6 -19 11 -28 11 -25 0 -44 26 -24 34 9 3 13 11 9 17 -3 6 -7 33 -8 61
-1 47 0 49 23 43 13 -3 37 -9 55 -12z m-1237 -25 c2 6 14 12 26 11 12 0 16 -3
9 -6 -6 -2 -9 -10 -5 -16 4 -6 0 -8 -10 -4 -10 4 -20 0 -26 -11 -7 -12 -10
-13 -11 -3 0 7 -6 11 -15 7 -18 -7 -20 5 -3 22 9 9 14 9 21 -1 7 -9 10 -9 14
1z m-917 -43 c10 -12 9 -16 -5 -21 -17 -7 -38 13 -29 28 8 12 20 10 34 -7z
m1698 -17 c-3 -7 -12 -14 -22 -14 -15 -2 -15 -2 0 3 14 4 14 7 3 14 -11 7 -10
9 4 9 11 0 17 -6 15 -12z m-1553 -19 c12 -19 -5 -23 -22 -6 -16 16 -16 17 -1
17 9 0 20 -5 23 -11z m2331 -35 c-4 -10 1 -22 11 -30 17 -13 17 -13 -3 -14
-13 0 -25 10 -32 25 -16 34 -15 35 9 35 15 0 19 -4 15 -16z m-406 -44 c4 -28
0 -39 -18 -49 -30 -16 -45 1 -30 35 20 46 43 53 48 14z m388 -29 c3 -8 -1 -12
-9 -9 -7 2 -15 10 -17 17 -3 8 1 12 9 9 7 -2 15 -10 17 -17z m902 -11 c0 -5
-9 -10 -20 -10 -11 0 -20 5 -20 10 0 6 9 10 20 10 11 0 20 -4 20 -10z m270
-15 c0 -8 -4 -15 -9 -15 -13 0 -22 16 -14 24 11 11 23 6 23 -9z m-3060 -65 c0
-5 -4 -10 -10 -10 -5 0 -10 5 -10 10 0 6 5 10 10 10 6 0 10 -4 10 -10z m2514
-45 c3 -9 0 -15 -9 -15 -8 0 -15 5 -15 10 0 6 -5 10 -11 10 -5 0 -7 -5 -4 -10
7 -12 -26 -26 -81 -35 l-39 -6 25 20 c43 35 124 51 134 26z m582 -23 c-9 -9
-37 8 -31 18 5 8 11 7 21 -1 8 -6 12 -14 10 -17z m-66 8 c0 -5 -15 -10 -32 -9
-28 0 -30 2 -13 9 28 12 45 12 45 0z m-693 -37 c7 -19 -44 -40 -60 -24 -9 10
-8 15 8 27 22 17 46 15 52 -3z m533 -28 c0 -3 -7 -5 -15 -5 -8 0 -15 7 -15 15
0 8 -5 15 -11 15 -5 0 -7 5 -4 11 7 10 45 -21 45 -36z m-1097 -9 c-18 -26 -33
-33 -33 -17 0 14 45 61 48 51 2 -5 -5 -21 -15 -34z m1094 -11 c13 4 14 3 3
-10 -7 -8 -16 -13 -20 -10 -5 3 -11 -4 -15 -15 -4 -11 -11 -18 -16 -15 -5 4
-9 -1 -9 -9 0 -8 -4 -18 -10 -21 -6 -4 -7 2 -1 17 4 13 6 29 4 36 -3 6 4 12
14 13 10 0 13 3 7 5 -7 3 -10 14 -7 25 5 20 6 19 20 -1 9 -13 21 -19 30 -15z
m-967 11 c0 -8 6 -17 13 -19 7 -3 5 -6 -5 -6 -10 -1 -18 1 -18 3 0 2 -3 11 -6
20 -3 9 -1 16 5 16 6 0 11 -6 11 -14z m885 -23 c-9 -17 -22 -36 -30 -43 -12
-10 -15 -9 -15 5 0 17 -1 17 -20 0 -11 -10 -17 -21 -15 -26 3 -4 1 -10 -5 -14
-14 -9 -12 7 5 42 15 30 32 42 65 49 8 2 16 8 18 14 2 6 6 9 8 7 2 -2 -3 -18
-11 -34z m-520 -12 c-3 -6 -13 -11 -21 -11 -14 0 -18 -11 -15 -37 1 -7 -3 -13
-9 -13 -22 0 -9 46 17 62 29 17 40 17 28 -1z m-760 -11 c3 -6 -1 -7 -9 -4 -18
7 -21 14 -7 14 6 0 13 -4 16 -10z m275 -9 c0 -16 -13 -20 -31 -10 -27 14 -23
27 6 21 14 -2 25 -8 25 -11z m1117 -3 c-3 -8 -6 -5 -6 6 -1 11 2 17 5 13 3 -3
4 -12 1 -19z m53 -8 c0 -5 -5 -10 -11 -10 -5 0 -7 5 -4 10 3 6 8 10 11 10 2 0
4 -4 4 -10z m-685 -30 c3 -5 -1 -10 -9 -10 -9 0 -16 5 -16 10 0 6 4 10 9 10 6
0 13 -4 16 -10z m-489 -28 c27 -22 36 -47 28 -78 -5 -19 -11 -23 -25 -19 -11
4 -26 0 -35 -10 -13 -12 -19 -13 -30 -4 -10 9 -12 15 -4 23 5 5 10 20 10 32 0
13 5 26 10 29 6 3 10 15 10 26 0 23 9 24 36 1z m944 4 c0 -2 -9 -6 -20 -9 -11
-3 -20 -1 -20 4 0 5 9 9 20 9 11 0 20 -2 20 -4z m-1430 -21 c7 -9 8 -15 2 -15
-5 0 -12 7 -16 15 -3 8 -4 15 -2 15 2 0 9 -7 16 -15z m1300 -4 c0 -12 -26 -21
-60 -21 -38 0 -48 18 -13 23 52 8 73 7 73 -2z m-1170 -16 c19 -23 8 -26 -19
-4 -16 13 -18 19 -8 19 8 0 20 -7 27 -15z m1004 -26 c-2 -4 -20 -7 -39 -6 -21
1 -30 4 -22 9 15 9 67 7 61 -3z m-130 -24 c-3 -7 2 -18 10 -25 18 -14 12 -30
-11 -30 -9 0 -13 6 -9 15 3 9 -1 18 -9 21 -17 7 -10 31 9 31 8 0 12 -6 10 -12z
m-1180 -16 c-3 -5 -10 -7 -15 -3 -5 3 -7 10 -3 15 3 5 10 7 15 3 5 -3 7 -10 3
-15z m1431 11 c-3 -6 1 -13 10 -16 14 -6 13 -8 -5 -21 -11 -8 -20 -19 -20 -26
0 -8 3 -8 12 1 7 7 21 12 33 12 16 0 17 -2 5 -9 -8 -6 -17 -8 -21 -5 -4 2 -11
0 -14 -6 -5 -8 -11 -7 -21 1 -18 15 -18 29 1 29 9 0 12 6 9 15 -4 8 -12 15
-20 15 -8 0 -14 5 -14 10 0 6 12 10 26 10 14 0 23 -4 19 -10z m-712 -30 c3
-11 1 -20 -5 -20 -6 0 -8 -7 -4 -15 4 -10 -1 -15 -14 -15 -13 0 -17 5 -14 15
4 9 -3 16 -21 21 l-28 7 29 13 c41 18 51 17 57 -6z m312 -20 c3 -5 -1 -10 -9
-10 -9 0 -16 5 -16 10 0 6 4 10 9 10 6 0 13 -4 16 -10z m1475 1 c0 -5 3 -18 6
-28 5 -16 4 -16 -10 1 -18 23 -20 36 -6 36 6 0 10 -4 10 -9z m-1130 -20 c0 -6
-4 -13 -10 -16 -5 -3 -10 1 -10 9 0 9 5 16 10 16 6 0 10 -4 10 -9z m33 -36
c-3 -9 -8 -14 -10 -11 -3 3 -2 9 2 15 9 16 15 13 8 -4z m1367 -21 c0 -8 -4
-14 -10 -14 -5 0 -10 9 -10 21 0 11 5 17 10 14 6 -3 10 -13 10 -21z m-104 -21
c-10 -10 -19 5 -10 18 6 11 8 11 12 0 2 -7 1 -15 -2 -18z m-1616 7 c0 -5 -4
-10 -10 -10 -5 0 -10 5 -10 10 0 6 5 10 10 10 6 0 10 -4 10 -10z m1080 0 c0
-5 -4 -10 -9 -10 -6 0 -13 5 -16 10 -3 6 1 10 9 10 9 0 16 -4 16 -10z m-176
-62 c-8 -12 -37 -9 -58 7 -11 8 -28 13 -38 9 -26 -8 -22 15 5 25 16 6 32 3 59
-12 20 -11 35 -24 32 -29z m266 42 c0 -5 -4 -10 -10 -10 -5 0 -10 5 -10 10 0
6 5 10 10 10 6 0 10 -4 10 -10z m275 -20 c3 -5 1 -10 -4 -10 -6 0 -11 5 -11
10 0 6 2 10 4 10 3 0 8 -4 11 -10z m-1665 -20 c0 -5 -7 -7 -15 -4 -8 4 -12 10
-9 15 6 11 24 2 24 -11z m1866 -57 c-11 -11 -17 4 -9 23 7 18 8 18 11 1 2 -10
1 -21 -2 -24z m-306 -43 c6 -11 7 -20 2 -20 -10 0 -32 21 -32 32 0 16 19 8 30
-12z m145 0 c4 -6 -5 -10 -19 -10 -14 0 -26 5 -26 10 0 6 9 10 19 10 11 0 23
-4 26 -10z m105 -20 c0 -5 -4 -10 -9 -10 -6 0 -13 5 -16 10 -3 6 1 10 9 10 9
0 16 -4 16 -10z m-285 -104 c-3 -37 -11 -37 -36 1 -22 32 -24 64 -7 81 17 17
46 -40 43 -82z m52 52 c-6 -4 1 -10 17 -14 25 -6 26 -8 11 -17 -9 -5 -26 -18
-37 -29 -11 -11 -23 -17 -26 -13 -4 3 -1 10 6 14 7 4 12 12 11 17 -1 5 -1 27
0 48 1 37 2 38 15 20 10 -13 11 -21 3 -26z m203 22 c0 -5 -4 -10 -10 -10 -5 0
-10 5 -10 10 0 6 5 10 10 10 6 0 10 -4 10 -10z m-761 -71 c29 -15 49 -19 71
-14 23 5 30 3 30 -8 0 -9 -6 -18 -12 -21 -7 -3 0 -4 17 -3 21 1 30 -3 33 -15
3 -14 -3 -18 -25 -19 -15 -1 -32 -1 -37 0 -5 1 -12 -3 -16 -9 -3 -5 -25 -11
-48 -13 -23 -1 -42 -5 -42 -9 0 -5 -17 -8 -38 -8 -49 0 -55 -7 -31 -31 22 -22
25 -59 5 -59 -7 0 -19 7 -26 15 -7 8 -29 15 -49 15 -20 0 -42 5 -49 12 -8 8
-21 9 -49 1 -21 -6 -57 -14 -80 -18 -24 -4 -45 -11 -49 -16 -9 -15 -44 -10
-51 7 -7 19 15 43 44 48 28 6 77 32 97 51 9 10 16 33 16 57 0 42 22 51 28 10
3 -18 8 -20 35 -15 18 3 48 13 67 23 87 43 108 46 159 19z m451 0 c0 -11 -4
-17 -10 -14 -5 3 -10 13 -10 21 0 8 5 14 10 14 6 0 10 -9 10 -21z m-200 -72
c8 -14 11 -29 7 -33 -11 -11 -61 42 -52 55 10 17 28 8 45 -22z m-886 -3 c4
-15 5 -29 2 -32 -8 -8 -46 39 -40 49 11 18 32 8 38 -17z m311 17 c8 -14 -37
-43 -48 -32 -15 15 0 41 22 41 11 0 22 -4 26 -9z"/>
<path d="M4590 3199 c0 -6 24 -19 35 -19 1 0 5 6 8 13 3 8 -4 13 -19 13 -13 0
-24 -3 -24 -7z"/>
<path d="M4815 2720 c-3 -5 -1 -10 4 -10 6 0 11 5 11 10 0 6 -2 10 -4 10 -3 0
-8 -4 -11 -10z"/>
<path d="M3664 3575 c11 -8 16 -15 10 -15 -5 -1 2 -7 16 -15 14 -8 34 -14 45
-13 17 0 17 1 3 5 -24 6 -23 23 2 23 25 0 27 20 3 20 -10 1 -36 3 -58 6 -37 4
-39 4 -21 -11z"/>
<path d="M2930 3518 c-15 -14 -20 -27 -16 -42 3 -11 6 -24 6 -28 0 -5 6 -8 14
-8 8 0 18 14 22 32 3 18 13 38 22 44 13 9 12 12 -6 16 -13 4 -29 -2 -42 -14z"/>
<path d="M8953 3512 c-23 -15 -43 -31 -43 -35 0 -5 -10 -22 -21 -39 -20 -27
-29 -71 -33 -152 -1 -31 29 -60 42 -40 4 6 28 17 55 25 l47 13 0 128 c0 70 -1
128 -2 127 -2 0 -22 -13 -45 -27z"/>
<path d="M3790 3520 c0 -5 5 -10 11 -10 5 0 7 5 4 10 -3 6 -8 10 -11 10 -2 0
-4 -4 -4 -10z"/>
<path d="M3805 3420 c-3 -5 -2 -10 4 -10 5 0 13 5 16 10 3 6 2 10 -4 10 -5 0
-13 -4 -16 -10z"/>
<path d="M5130 3400 c-13 -9 -13 -11 0 -20 13 -9 13 -10 0 -10 -13 0 -13 -1 0
-10 21 -13 33 -12 56 4 19 15 19 15 -1 30 -24 18 -35 19 -55 6z"/>
<path d="M5660 3378 c-30 -32 -60 -115 -47 -126 25 -19 49 -21 70 -7 28 19 71
19 87 0 17 -20 37 -19 49 4 12 22 5 31 -25 31 -30 0 -57 28 -52 55 10 50 -48
79 -82 43z"/>
<path d="M1351 3374 c0 -11 3 -14 6 -6 3 7 2 16 -1 19 -3 4 -6 -2 -5 -13z"/>
<path d="M6145 3241 c32 -19 55 -17 55 5 0 10 -13 14 -42 14 l-43 0 30 -19z"/>
<path d="M2054 3235 c-10 -25 4 -45 30 -45 24 0 46 24 46 49 0 17 -70 13 -76
-4z"/>
<path d="M5618 3177 c-31 -12 -35 -28 -13 -47 12 -10 18 -8 35 11 19 24 26 50
13 48 -5 -1 -20 -6 -35 -12z"/>
<path d="M5527 3142 c38 -38 60 -40 49 -5 -5 16 -55 43 -80 43 -4 0 9 -17 31
-38z"/>
<path d="M2350 3149 c0 -5 5 -7 10 -4 6 3 10 8 10 11 0 2 -4 4 -10 4 -5 0 -10
-5 -10 -11z"/>
<path d="M2761 3063 c-17 -18 -13 -33 8 -33 11 0 22 -4 25 -9 8 -12 56 -20 56
-10 0 5 -4 9 -9 9 -5 0 -22 12 -39 28 -23 21 -32 25 -41 15z"/>
<path d="M4241 3063 c8 -9 15 -11 17 -4 2 7 8 7 17 -2 7 -7 10 -16 7 -21 -3
-5 0 -6 7 -2 17 11 -11 41 -39 43 -18 2 -20 0 -9 -14z"/>
<path d="M2062 3035 c-16 -34 -15 -77 1 -99 11 -15 17 -16 35 -7 11 6 23 20
26 31 3 11 9 30 12 41 4 14 2 19 -5 15 -11 -7 -15 5 -12 32 3 24 -45 13 -57
-13z"/>
<path d="M4216 3015 c-3 -8 0 -16 7 -18 9 -3 9 -8 -1 -20 -12 -14 -11 -15 12
-4 14 7 26 16 26 20 0 5 -6 5 -12 1 -10 -6 -10 -4 0 8 10 13 9 16 -7 21 -11 3
-22 -1 -25 -8z"/>
<path d="M1240 3003 c0 -21 17 -50 24 -43 2 3 7 17 11 33 6 23 4 27 -14 27
-13 0 -21 -6 -21 -17z"/>
<path d="M7491 2974 c0 -11 3 -14 6 -6 3 7 2 16 -1 19 -3 4 -6 -2 -5 -13z"/>
<path d="M3356 2950 c4 -14 8 -38 8 -54 1 -38 23 -45 32 -11 3 14 14 30 24 35
19 10 21 33 5 47 -4 4 -5 2 -1 -4 5 -9 -1 -13 -21 -13 -16 0 -35 6 -42 13 -11
10 -12 7 -5 -13z"/>
<path d="M3020 2950 c0 -6 7 -10 15 -10 8 0 15 2 15 4 0 2 -7 6 -15 10 -8 3
-15 1 -15 -4z"/>
<path d="M1896 2841 c-4 -5 3 -7 14 -4 23 6 26 13 6 13 -8 0 -17 -4 -20 -9z"/>
<path d="M6222 2726 c7 -8 15 -12 17 -11 5 6 -10 25 -20 25 -5 0 -4 -6 3 -14z"/>
<path d="M5875 2720 c-3 -5 1 -10 9 -10 9 0 16 5 16 10 0 6 -4 10 -9 10 -6 0
-13 -4 -16 -10z"/>
<path d="M5886 2675 c-3 -9 0 -15 9 -15 8 0 15 7 15 15 0 8 -4 15 -9 15 -5 0
-11 -7 -15 -15z"/>
<path d="M5738 2667 c-34 -9 -52 -27 -29 -27 5 0 17 -3 27 -7 13 -5 15 -3 9 7
-5 9 -4 11 4 6 10 -7 41 15 41 28 0 7 -4 7 -52 -7z"/>
<path d="M6198 2548 c9 -9 15 -9 24 0 9 9 7 12 -12 12 -19 0 -21 -3 -12 -12z"/>
<path d="M5695 2540 c-3 -5 1 -10 10 -10 9 0 13 5 10 10 -3 6 -8 10 -10 10 -2
0 -7 -4 -10 -10z"/>
<path d="M4333 2513 c-18 -7 -16 -23 2 -23 8 0 15 7 15 15 0 8 -1 15 -2 14 -2
0 -9 -3 -15 -6z"/>
<path d="M6170 2495 c0 -8 4 -15 10 -15 5 0 7 7 4 15 -4 8 -8 15 -10 15 -2 0
-4 -7 -4 -15z"/>
<path d="M4226 2485 c-9 -10 -24 -31 -32 -48 -19 -38 -52 -66 -76 -67 -24 0
-23 -8 4 -29 18 -15 29 -16 62 -9 28 6 42 6 44 -1 5 -14 22 -4 22 11 0 6 -3 9
-6 5 -3 -3 -16 6 -29 21 -24 28 -19 52 12 52 8 0 12 4 9 9 -4 5 -1 22 4 37 13
33 8 40 -14 19z"/>
<path d="M7355 2446 c-37 -11 -38 -13 -16 -18 26 -7 61 6 61 22 0 6 -1 10 -2
9 -2 0 -21 -6 -43 -13z"/>
<path d="M7155 2408 c-19 -10 -38 -26 -44 -35 -9 -16 -13 -16 -56 6 -56 28
-77 23 -66 -16 4 -15 6 -34 4 -40 -3 -7 0 -13 7 -13 6 0 20 -9 32 -20 29 -27
37 -25 44 9 7 35 25 44 59 31 28 -11 77 6 113 40 25 24 27 33 10 48 -18 15
-63 10 -103 -10z"/>
<path d="M7485 2355 c-16 -14 -25 -25 -18 -25 7 0 24 11 39 25 35 32 18 32
-21 0z"/>
<path d="M8537 2359 c7 -7 15 -10 18 -7 3 3 -2 9 -12 12 -14 6 -15 5 -6 -5z"/>
<path d="M5368 2353 c7 -3 16 -2 19 1 4 3 -2 6 -13 5 -11 0 -14 -3 -6 -6z"/>
<path d="M6890 2331 c0 -5 9 -7 20 -4 11 3 20 7 20 9 0 2 -9 4 -20 4 -11 0
-20 -4 -20 -9z"/>
<path d="M6896 2295 c-4 -10 2 -19 17 -24 27 -11 37 -5 37 20 0 24 -45 27 -54
4z"/>
<path d="M4016 2252 c-4 -7 -4 -12 1 -12 4 0 1 -5 -7 -10 -11 -7 -7 -10 18
-10 17 0 32 5 32 10 0 6 -6 10 -14 10 -8 0 -16 5 -18 12 -3 9 -6 9 -12 0z"/>
<path d="M6650 2145 c-24 -14 -24 -14 -3 -15 12 0 25 5 28 11 11 17 2 18 -25
4z"/>
<path d="M4056 2084 c-8 -20 1 -34 20 -34 15 0 17 9 8 34 -8 20 -20 20 -28 0z"/>
<path d="M6895 1140 c-3 -5 1 -10 10 -10 9 0 13 5 10 10 -3 6 -8 10 -10 10 -2
0 -7 -4 -10 -10z"/>
<path d="M6872 1113 c-6 -2 -10 -9 -7 -13 7 -11 35 -2 35 11 0 10 -8 10 -28 2z"/>
<path d="M7003 1045 c-15 -17 -17 -45 -3 -45 6 0 10 9 10 20 0 25 16 26 29 3
6 -10 10 -13 10 -8 0 10 -23 45 -30 45 -2 -1 -10 -7 -16 -15z"/>
<path d="M6850 1030 c0 -5 5 -10 11 -10 5 0 7 5 4 10 -3 6 -8 10 -11 10 -2 0
-4 -4 -4 -10z"/>
<path d="M6884 1011 c-5 -21 -11 -28 -21 -24 -10 4 -14 1 -11 -7 2 -7 13 -16
24 -21 18 -6 20 -4 16 16 -2 12 1 32 7 44 8 14 8 21 1 21 -6 0 -13 -13 -16
-29z"/>
<path d="M6960 1018 c0 -9 -6 -18 -12 -21 -10 -3 -10 -8 -2 -16 9 -10 13 -6
18 14 4 15 5 30 1 33 -3 3 -5 -2 -5 -10z"/>
<path d="M7850 999 c0 -5 5 -7 10 -4 6 3 10 8 10 11 0 2 -4 4 -10 4 -5 0 -10
-5 -10 -11z"/>
<path d="M6780 950 c0 -5 5 -10 10 -10 6 0 10 5 10 10 0 6 -4 10 -10 10 -5 0
-10 -4 -10 -10z"/>
<path d="M6865 930 c-3 -5 -1 -10 4 -10 6 0 11 5 11 10 0 6 -2 10 -4 10 -3 0
-8 -4 -11 -10z"/>
<path d="M6598 883 c7 -3 16 -2 19 1 4 3 -2 6 -13 5 -11 0 -14 -3 -6 -6z"/>
<path d="M6678 873 c7 -3 16 -2 19 1 4 3 -2 6 -13 5 -11 0 -14 -3 -6 -6z"/>
<path d="M6736 867 c3 -10 9 -15 12 -12 3 3 0 11 -7 18 -10 9 -11 8 -5 -6z"/>
<path d="M6570 860 c0 -5 5 -10 10 -10 6 0 10 5 10 10 0 6 -4 10 -10 10 -5 0
-10 -4 -10 -10z"/>
<path d="M6575 830 c3 -5 8 -10 11 -10 2 0 4 5 4 10 0 6 -5 10 -11 10 -5 0 -7
-4 -4 -10z"/>
<path d="M6691 783 c-1 -12 4 -25 9 -28 12 -7 12 2 0 30 -8 19 -9 19 -9 -2z"/>
<path d="M6785 770 c3 -5 8 -10 11 -10 2 0 4 5 4 10 0 6 -5 10 -11 10 -5 0 -7
-4 -4 -10z"/>
<path d="M6560 590 c0 -13 11 -13 30 0 12 8 11 10 -7 10 -13 0 -23 -4 -23 -10z"/>
<path d="M6545 540 c-3 -5 -1 -10 4 -10 6 0 11 5 11 10 0 6 -2 10 -4 10 -3 0
-8 -4 -11 -10z"/>
<path d="M7100 480 c-9 -6 -10 -10 -3 -10 6 0 15 5 18 10 8 12 4 12 -15 0z"/>
<path d="M6535 470 c4 -6 11 -8 16 -5 14 9 11 15 -7 15 -8 0 -12 -5 -9 -10z"/>
<path d="M6625 470 c-3 -5 -2 -10 4 -10 5 0 13 5 16 10 3 6 2 10 -4 10 -5 0
-13 -4 -16 -10z"/>
<path d="M6905 470 c-3 -5 1 -10 9 -10 9 0 16 5 16 10 0 6 -4 10 -9 10 -6 0
-13 -4 -16 -10z"/>
<path d="M6570 466 c0 -2 9 -6 20 -9 11 -3 18 -1 14 4 -5 9 -34 13 -34 5z"/>
<path d="M6808 463 c6 -2 18 -2 25 0 6 3 1 5 -13 5 -14 0 -19 -2 -12 -5z"/>
<path d="M6860 440 c-13 -8 -12 -10 3 -10 9 0 17 5 17 10 0 12 -1 12 -20 0z"/>
<path d="M6929 438 c0 -2 -2 -11 -4 -21 -3 -15 -1 -16 11 -6 7 6 11 15 8 20
-5 9 -13 12 -15 7z"/>
<path d="M6881 354 c0 -11 3 -14 6 -6 3 7 2 16 -1 19 -3 4 -6 -2 -5 -13z"/>
<path d="M6968 353 c7 -3 16 -2 19 1 4 3 -2 6 -13 5 -11 0 -14 -3 -6 -6z"/>
<path d="M8965 300 c-3 -5 3 -10 14 -10 12 0 21 5 21 10 0 6 -6 10 -14 10 -8
0 -18 -4 -21 -10z"/>
<path d="M6848 293 c7 -3 16 -2 19 1 4 3 -2 6 -13 5 -11 0 -14 -3 -6 -6z"/>
<path d="M6820 261 c0 -10 30 -24 37 -17 3 2 -5 9 -16 16 -12 6 -21 7 -21 1z"/>
<path d="M6872 258 c5 -15 28 -23 28 -10 0 5 -7 13 -16 16 -10 4 -14 1 -12 -6z"/>
<path d="M8953 256 c0 -8 6 -12 14 -9 7 3 13 0 13 -7 0 -6 -9 -14 -20 -17 -13
-3 -19 -13 -17 -27 2 -17 -7 -24 -44 -36 -25 -9 -44 -21 -42 -27 2 -6 -1 -14
-6 -18 -6 -3 -11 1 -11 9 0 9 -4 16 -10 16 -12 0 -31 -35 -28 -52 2 -8 -6 -12
-22 -10 -18 2 -21 0 -11 -6 7 -6 10 -15 7 -21 -4 -6 -1 -11 8 -11 8 0 17 6 19
13 3 7 6 5 6 -5 1 -12 -6 -18 -20 -18 -12 0 -19 -5 -17 -12 3 -9 38 -14 117
-16 l112 -3 -3 133 c-3 126 -4 133 -24 136 -13 2 -21 -3 -21 -12z"/>
<path d="M8900 199 c0 -5 5 -7 10 -4 6 3 10 8 10 11 0 2 -4 4 -10 4 -5 0 -10
-5 -10 -11z"/>
<path d="M8740 182 c0 -15 38 -35 53 -28 8 3 7 5 -2 5 -8 1 -23 8 -33 18 -10
9 -18 11 -18 5z"/>
<path d="M8680 119 c0 -5 5 -7 10 -4 6 3 10 8 10 11 0 2 -4 4 -10 4 -5 0 -10
-5 -10 -11z"/>
<path d="M8758 123 c6 -2 18 -2 25 0 6 3 1 5 -13 5 -14 0 -19 -2 -12 -5z"/>
<path d="M6872 50 c0 -14 2 -19 5 -12 2 6 2 18 0 25 -3 6 -5 1 -5 -13z"/>
<path d="M8735 50 c3 -5 11 -10 16 -10 6 0 7 5 4 10 -3 6 -11 10 -16 10 -6 0
-7 -4 -4 -10z"/>
</g>
</svg>
